<mxfile host="app.diagrams.net" agent="Mozilla/5.0 (Windows NT 10.0; Win64; x64) AppleWebKit/537.36 (KHTML, like Gecko) Chrome/134.0.0.0 Safari/537.36" version="26.1.1">
  <diagram name="Page-1" id="2cc2dc42-3aac-f2a9-1cec-7a8b7cbee084">
    <mxGraphModel dx="2585" dy="1363" grid="1" gridSize="10" guides="1" tooltips="1" connect="1" arrows="1" fold="1" page="1" pageScale="1" pageWidth="1100" pageHeight="850" background="none" math="0" shadow="0">
      <root>
        <mxCell id="0" />
        <mxCell id="1" parent="0" />
        <mxCell id="JWi303rD80z22EchMW59-51" value="" style="edgeStyle=orthogonalEdgeStyle;rounded=0;orthogonalLoop=1;jettySize=auto;html=1;" edge="1" parent="1" source="7026571954dc6520-1" target="JWi303rD80z22EchMW59-43">
          <mxGeometry relative="1" as="geometry" />
        </mxCell>
        <mxCell id="7026571954dc6520-1" value="" style="strokeWidth=1;shadow=0;dashed=0;align=center;html=1;shape=mxgraph.mockup.containers.browserWindow;rSize=0;strokeColor=#666666;mainText=,;recursiveResize=0;rounded=0;labelBackgroundColor=none;fontFamily=Verdana;fontSize=12" parent="1" vertex="1">
          <mxGeometry x="30" y="20" width="1050" height="820" as="geometry" />
        </mxCell>
        <mxCell id="7026571954dc6520-2" value="Page 1" style="strokeWidth=1;shadow=0;dashed=0;align=center;html=1;shape=mxgraph.mockup.containers.anchor;fontSize=17;fontColor=#666666;align=left;" parent="7026571954dc6520-1" vertex="1">
          <mxGeometry x="60" y="12" width="110" height="26" as="geometry" />
        </mxCell>
        <mxCell id="7026571954dc6520-3" value="https://www.default.com" style="strokeWidth=1;shadow=0;dashed=0;align=center;html=1;shape=mxgraph.mockup.containers.anchor;rSize=0;fontSize=17;fontColor=#666666;align=left;" parent="7026571954dc6520-1" vertex="1">
          <mxGeometry x="130" y="60" width="250" height="26" as="geometry" />
        </mxCell>
        <mxCell id="7026571954dc6520-14" value="Search" style="strokeWidth=1;shadow=0;dashed=0;align=center;html=1;shape=mxgraph.mockup.forms.searchBox;strokeColor=#999999;mainText=;strokeColor2=#008cff;fontColor=#666666;fontSize=17;align=left;spacingLeft=3;rounded=0;labelBackgroundColor=none;" parent="7026571954dc6520-1" vertex="1">
          <mxGeometry x="220" y="340" width="610" height="30" as="geometry" />
        </mxCell>
        <mxCell id="7026571954dc6520-4" value="Floorball Statistics" style="text;html=1;points=[];align=left;verticalAlign=top;spacingTop=-4;fontSize=30;fontFamily=Verdana" parent="7026571954dc6520-1" vertex="1">
          <mxGeometry x="382.5" y="280" width="285" height="50" as="geometry" />
        </mxCell>
        <mxCell id="7026571954dc6520-18" value="Players" style="strokeWidth=1;shadow=0;dashed=0;align=center;html=1;shape=mxgraph.mockup.buttons.button;strokeColor=#666666;mainText=;buttonStyle=round;fontSize=17;fontStyle=0;fillColor=none;whiteSpace=wrap;rounded=0;labelBackgroundColor=none;" parent="7026571954dc6520-1" vertex="1">
          <mxGeometry x="290" y="390" width="190" height="30" as="geometry" />
        </mxCell>
        <mxCell id="JWi303rD80z22EchMW59-26" value="Teams" style="strokeWidth=1;shadow=0;dashed=0;align=center;html=1;shape=mxgraph.mockup.buttons.button;strokeColor=#666666;mainText=;buttonStyle=round;fontSize=17;fontStyle=0;fillColor=none;whiteSpace=wrap;rounded=0;labelBackgroundColor=none;" vertex="1" parent="7026571954dc6520-1">
          <mxGeometry x="550" y="390" width="190" height="30" as="geometry" />
        </mxCell>
        <mxCell id="JWi303rD80z22EchMW59-60" value="" style="edgeStyle=orthogonalEdgeStyle;rounded=0;orthogonalLoop=1;jettySize=auto;html=1;" edge="1" parent="1" source="JWi303rD80z22EchMW59-43" target="JWi303rD80z22EchMW59-52">
          <mxGeometry relative="1" as="geometry" />
        </mxCell>
        <mxCell id="JWi303rD80z22EchMW59-43" value="" style="strokeWidth=1;shadow=0;dashed=0;align=center;html=1;shape=mxgraph.mockup.containers.browserWindow;rSize=0;strokeColor=#666666;mainText=,;recursiveResize=0;rounded=0;labelBackgroundColor=none;fontFamily=Verdana;fontSize=12" vertex="1" parent="1">
          <mxGeometry x="1125" y="15" width="1050" height="820" as="geometry" />
        </mxCell>
        <mxCell id="JWi303rD80z22EchMW59-44" value="Page 1" style="strokeWidth=1;shadow=0;dashed=0;align=center;html=1;shape=mxgraph.mockup.containers.anchor;fontSize=17;fontColor=#666666;align=left;" vertex="1" parent="JWi303rD80z22EchMW59-43">
          <mxGeometry x="60" y="12" width="110" height="26" as="geometry" />
        </mxCell>
        <mxCell id="JWi303rD80z22EchMW59-45" value="https://www.default.com" style="strokeWidth=1;shadow=0;dashed=0;align=center;html=1;shape=mxgraph.mockup.containers.anchor;rSize=0;fontSize=17;fontColor=#666666;align=left;" vertex="1" parent="JWi303rD80z22EchMW59-43">
          <mxGeometry x="130" y="60" width="250" height="26" as="geometry" />
        </mxCell>
        <mxCell id="JWi303rD80z22EchMW59-46" value="Search" style="strokeWidth=1;shadow=0;dashed=0;align=center;html=1;shape=mxgraph.mockup.forms.searchBox;strokeColor=#999999;mainText=;strokeColor2=#008cff;fontColor=#666666;fontSize=17;align=left;spacingLeft=3;rounded=0;labelBackgroundColor=none;" vertex="1" parent="JWi303rD80z22EchMW59-43">
          <mxGeometry x="315" y="340" width="610" height="30" as="geometry" />
        </mxCell>
        <mxCell id="JWi303rD80z22EchMW59-47" value="Players" style="text;html=1;points=[];align=left;verticalAlign=top;spacingTop=-4;fontSize=30;fontFamily=Verdana" vertex="1" parent="JWi303rD80z22EchMW59-43">
          <mxGeometry x="461.25" y="270" width="127.5" height="50" as="geometry" />
        </mxCell>
        <mxCell id="JWi303rD80z22EchMW59-49" value="Teams" style="strokeWidth=1;shadow=0;dashed=0;align=center;html=1;shape=mxgraph.mockup.buttons.button;strokeColor=#666666;mainText=;buttonStyle=round;fontSize=17;fontStyle=0;fillColor=none;whiteSpace=wrap;rounded=0;labelBackgroundColor=none;" vertex="1" parent="JWi303rD80z22EchMW59-43">
          <mxGeometry x="85" y="340" width="190" height="30" as="geometry" />
        </mxCell>
        <mxCell id="JWi303rD80z22EchMW59-50" value="" style="shape=image;verticalLabelPosition=bottom;labelBackgroundColor=default;verticalAlign=top;aspect=fixed;imageAspect=0;image=data:image/png,iVBORw0KGgoAAAANSUhEUgAAA54AAADACAYAAABs47z9AAAAAXNSR0IArs4c6QAAAARnQU1BAACxjwv8YQUAAAAJcEhZcwAADsMAAA7DAcdvqGQAAFLOSURBVHhe7d13eFRV/sfx97T0HiCQ0EGpUlWK2AUsrK6/1d216xa7a8eydkWxYq+76rqurqsiRaSr9N4CoSUQCAQC6WUymXp/fySM5CZgAkxC+bye5z6Pc77nzh3GM+ee773nnlhKyysMI8BxyV3lwe6wY7GYIyJNy+Px4nDYsagxSjMyDAOv10dYmMMckhDS9y5HC38ggN/nV1uUZufx+LBYwWG3m0MSQoYBPp+f8PAm7gMsEGa3Y6lwVhl2m9UcPi74/dUZtcWqwb40n4ABxcXlJCbGYgFdCJFmYRjgDxiUlVeQEB+LusWmYRgQMAKUljpJSND3Ls3HMMDj8+Gu8hITE6m2KM0mYIDTWUV4uB273a622IRcLjcBA6KjIqA6H2yScak/4Mft8WExDMMwB48XLpcHA4iKDDOHRJpMwIBduwtpnZKIzWptkh+4iJlhgNvjo7C4lDYpyTrRNxHDAK/PR35BKW1a63uX5mMYUO504XJ5aNkiXm1Rmk3AgILCMsLD7cTGRKktNqGi4nKsNitxsdHQhInnPsfnrU4RERERERE5aijxFBERERERkZBS4ikiIiIiIiIhpcRTREREREREQkqJp4iIiIiIiISUEk8REREREREJKSWeIiIiIiIiElJKPEVERERERCSklHiKiIiIiIhISFkMwzDMhccLl8uDAURFhplDAFRUVPLdxB+x2+vm32H2MC677Bzsdrs5JNIoAQN27S6kdUoiNqsVi8VcQyT0DAPcHh+FxaW0SUnGqnbYJAwDvD4f+QWltGmt712aj2FAudOFy+WhZYt4tUVpNgEDCgrLCA+3ExsTpbbYhIqKy7HarMTFRgNggUaPS6uq3FS5PSTEx5pDv+qETjwnfv8T23fmcWq/HuYQ06bN57rrLuWkLu3NoSDDgK3ZO0hplUxMTBQAPr+f3Ny9dGjfxlxdTlANSTz/9fkkc1Et11/zGyz17VjD5XJTWFRC27QUc+iwFRWXUlFRSft2v7Tp/IJiIsLDiK3puOTo19DE89fa4g3XXmouCiqvqGTv3kJzMZ06tsV6oAMeAbm79hIW5qBli8RgWc6O3bRp3RKHo3kvHjY08Tyc731/JSXl5O7ei81mpV1aa6KjI81VflVJaTmTvv+J669p2DHl2NCQxLOqys1X30w3F9fS0La4PWcX8XGxJCQ0bnC6O6+AouJSevXoYg7JcaIhieemzdtYvDTdXBzUrm0K550zyFwctDe/iPJyZ62y8PCwwxonHahvLCoupbi4DJvNRlJiHHFxMbXiZs3Zxo9U4vn402/z8gv3m0O/yvbUU089ZS48Xvh8fgAcDps5BEBm5nZat0rmnLNOo13b1rW21emb6N69M0mJcebdgnw+H39/6i127sxj8Ol9ACgrc/L6W//mgvMGm6vLCcoAyitcxMREYrVY6v2Be70+WrZMOuCW2qblQRPPzKzt/Pd/Uzlr2EBzqEH8/gA/TJvLySd1NIeYPnMhn/x7At27dSIpKR6A7ybOxuPx0b5da3N1OYr5/QFcVW5iY6LqbYc0oC2mpbYy7xKUnb2T6TMXsHZdJlNnzKe4uIzMrBz69+uB3VZ/P3wkvPfhV8yYvYhhQwcEE81XXv8Xfft0Izqq8YnXkRYIBKisDN33DhAIGHzx3yl8O2EWVVVuMrNyWLh4NWcM6Weu+qtKSiuYMPknRpw/xBySY5zH68Pn8xMdFVFvW/T5/BgGddpfY9oiQKWrimdf+IDCohIG9O9pDh/Unj0F7N1bRIf2qeYQALt257Nx87YGfQ45OhlApcuN3W4lPMxRb1ssLCwhLi6mTvvbt4WHhx20DSxesoaFi9ewaEk6S5atZc/eQgqLSujd6yRzVQCWr1yPYRjBhKw+B+obp89cyA/T5rE7r4DJP/xMQWExpxzgODSgje8zacrPnHxSh4OO/xrLVeXBYrUQHl59U+5QEk+fz89Pc5Yy4oKh5tCvOqETz82Z27DbbXTp3M4cYvGSdLp163TQxDMQCDBvwQr8fj9RUZG0TUuhqsrD/IWruOC8wfj8flanb2LFyvXk7SmkTeuW2Gw21mZkYhgGi5esYWv2Tlq3bknmlhwWLVlDwAgEr9p7PF7mL1hF+tpNREZGEH8It7Sl+TUk8UxLbXXQ7dc6nfyCYjZuyq6TeO7NL2Lx0nQ2bNxKeLiDhPhYDANWrMpg6bJ15O0poEVyIj/PXcqCRasxDIOYmKhad0k2bsqGmk552BkDsFqtpK/bTGJCHO3bta73GJWVVazNyKS8vJIFi6vfNzIqgrlzl5O1dQepbVoFE4Rt23cxZ95y9uwtJC21FTZb3anvcmQ0JPE0tz3zdjAtWiQy6LRTaNe2NelrN/P3h/7KoNNOwW6zsWLVepYuW0uV203rlBZwgPbZmLazz4JFq4iLiSZn5276ntINgJ/mLGXQ6X2Ijoo87OMcbhttSOJp/p7N26/58eelrFu/hUdH/4XTTu3Naaf2rpV0lpSWM2fecjZuyiYuLjY4SydzSw5Ll60le9tOkpMSiIgIp8LpYtGSNYw4f0jNOW0la9I3UVpW8asXweTo9muJp91ur9P2zFtDLFy8mpjoSDI2bGHYGdUXhMznnpYtknA4HHXKfD4/WCClVTKFhSXMmbecTZuzCRgG0VFRfDN+BtnZO6moqKRd29Zs257L/AUr2bZtF9HRUcTWtG05ejUk8WyRnFCn7Zm3g+ncqS2DTjsFv99PWJiDW/5yJb17nYTX62PBolWsXrMRas5be/OL+M9/v6ei3EmFs4p2bVPqPW/s3zfub+OmbFq2TOLG6y5j6JB+fPTxeIYO7ktkZASr0zeyeEk6xSVlpKWmYLFYqHRVBdt4dU4AS5evZf2GrSQmxhEdFcnGTdl88dUPhIU58Pn8xERHHZG+uLkTz8adPaUOfyDANX8cxTfjZ1BZWVUrFvAH2LEjj9TUVqxdl8nE738CYOmytbz7wVeEhYexOSuH51/6iLVrN5MQH8s77/+X/IJiAN7/6H/szS+kTZtWvPP+f8ndtbfW+8vx470Pv+LNd/5zwO1QZ8Tv2JlHREQYcXExvP7255SVO1m8NJ1ZsxfToUMqHo8Xt8dLRUUldruNuLiYep9rHti/J3Fx0cyctdAcqvcYZeVOPv1sAgsXryY+LoZ3P/yKD/7xNVHRUWzO3M7X31ZP5craksM/PvmWtm1T2L59F//6fKL57aWJmdueeTsU02csYP6ClXTokMr0mQuZO38FHGbbMRt1ydmsSd9E1pYcc+iwjtNUbdT8PZu3X7N8ZQbnnzuIiIhwcwin08ULL/0Dv89PREQ4L732MbvzCqDmLnXLlklUVFTyzvtfmnflf99MY9v2XNq3T6W4uBSrVcOG41lVlbtO29t/++SzCeZd6rVw8WqGDOpLn14nsXxFBkCdc4/X56u3LHtbLkuXrQXg1Tc/w2azkpLSguLiMtxuD263h/Dw6t9zYVEJ73zwX9q0aUVUdCQVFbWnVsqxa9PmbXXa3/7bjz8vMe/SIO9+8F+2bMkhKSmB//x3CouWrKGqyo3H4yU6OpKYmOoL7/WdNxrC6/UBBnabjanT5zNtxgJatUpm2fJ1/PuL6kcq9m/j1TnBf3E4HLhcVbz+1r+hZtaAz+cnLi6GiIjwZu+L5y1YGfzu3//of1RWVtX6/7E2I9O8S72a9lMfh/z+ACef1IHevbry7YSZ1ZcOaoSFOTjvnNOJjo6kbVorcnN/SRxPP7U3Zw0byIUjzqDSVcXvr7iQs4YNpF3b1uTtqZ77vXFzNt26dSIiIqx6+m/N1Rk5/lxw3hAuGnnmAbdDNaBfD9q1a0NCfCxRkRHszS8iOjqC0rIKAoEAF5w3mOSkeE46qQOxMdGcfmrveu/yBwIBrvnjJcyYtYi9+UX7N/N6jwHg9fm59upRnH3mqXTp3I7+fbszdHBfzjvndHJ3V/8WFi5eTdcu7QgLc9CtWydWrFpPIHBoSbYcGea2Z94OxdwFK+jZowt2u42Tu3Zg+crqgejhtB2zqMgIfnf5cD7/cgo+f/Vsl30O5zhN1UbN37N5+zXl5c7gM9ezZi/i4cde5+HHXqeiopL0dZtJbdOSiy86iwvOG8zpp/Zm8ZI1AJx91mkkJcbRrl0bduTuMb0rREdHUlBYSnxcDBeOGGYOy3HI3Pb234YNHWCuXkfurr2UlVXQoX0q/fv1YOHi1QB1zj0J8bH1lu0vJjqKPXsL6dwxjSGD+pKQEEvr1i1ITW3F6af2JioyAoCSkjJOHdCLk7p2qLW/HLusVmud9rf/1q5t49dSKSwsIWvrDq679lLOPGMAl192PnPmLad9uzZER0XSrVun4BTZA503DmRdRibvffgVY178iN9cdDZxcTHMW7CCK/9vBEMH9+VPN1zO4qXpVFV5zLsy6LRTaj7PBRQUluByuenRrTMApw3sRYf2bZq9L26d0iL43Q8/fyjh4WG1/n9EhNe96FkfJZ77yaznSvmvqrkTdcXlI1iTvomt2TuDoXkLVvLam5+xffsuXFVuAkYgGNs3bdZutxEdFRm8zW2zWgkEAjidLmw2Gzt25JGTs5tOHdPo3LltcH85vpzUtf1Bt0OaTuFy88zz7zNv/gqKS8oIBAyMQIA+vU/mhusuZcHCVTz57LsUFZead63DoHpKyPnnDuLLr37AVvO83oGOARATExV8rs9htxEdXT39yWqzEvBX13E6q3A6q8jJ2U1BQTGjLjq71u9Emp657Zm3Q+GsdFFYVEJOzm7Cwhycfuoph9126jNkUN/gnfljrY2av2fz9msSE+PYs6f6LubZZ53Gk3+/rfrfaxh43F6ioqoH6ACxMdG4qtzk7NjNU8++y7qMTCoqnPXOrLj8svMZMqgvn/1nMm+//yWBmu9Ojk8REeF12p55+zWLlqzBWVnFw4+/zqefT2R7zm525+XXe+6pr2x/99x5LYkJcYx99WN+mDavVgwgLi6Gh+7/E3l7Cnj86bfI2LDFXEWOUeZ2V9/WWG6Pl/AwR7Dfj42JwuVym6sd9LxxIGmpKYy4YCiPP3wzF190FtQcb1/fG1Wz3oDH6621HzXtGAg+xlFfP9vcffH+33uXzm2x2ayH9P9DiSewOn0TL7/2CZ9/MZlP/z2RXQe4on4w0dGR/O7y4Xzz3cxg2YqV67ngvCGMuGAosTEHfli5Pq1aJmEB+vXtziUXncXFF57FSV10Je949d6HX/HsCx/U2g5X7u69uFxurvnjJZw2sDdVVdWdq9fro/vJnfjbHdfQNi2FtWszsdlsOCtd5reo48IRwygqLiW9ZkrFgY7RUO3aphAe5uDiC8/ikovOYsQFQ0O6CI38OnM7fO/Dr8xVGq1d29a0SWnJJRdV/38edNoph912DmTfnfl97flwj9NUbdT8vb/2xmfmKgc16LQ+/PjzUgqLSnE47ERG/nL1uUOHVLZm78Tt9mAYBhs2ZdOxQyoZ67M4+aQOXDrq3AOu9Oj3BzhjSD8ef+QWtm/fRd6euqsWy/Gjqspdpy1+u9+45tf4/QGWLE3nwXtv5NWxD/Dq2Ac4c2h/Fi1eU++5p76y/TkcdkZdfDZ333ENs2umVtqsViprft8+n59WLZO47urfcMlFZ7Fg4apa+8uxa9PmbXXa4tLl68zVGqVli0QCAYOdNbM7NmzcSqeO1Qv82Gy24CNzh3LeSEyMo0vndrVWtO3UMY2NG6vXydicuY2E+NiDLl60P2tNErrvMx0vffEJvbjQ4qVrWLcuk5yc3Yy4YChX/f5iCgpL+Py/U6h0uel2UkdapySbdwsKBALMmLWQi2qmQe1bUMPpdHHBeYPxBwJ8N2k2a9I3EREZTnlFJUMG9WXV6g0kJyfQoX0bSssqWLlqA+edczrUTOvq0rkdaakppKS04F//nsjS5euYMWshXbq0IzGh7jRIObo1ZHGh9u3aMHBAz1pbTM3dl4bILyhm5o+Lmf3TEqbPXMCSZelcPPJMlq1Yx7wFK1m7LpPEhFhO6tqBDZuy+fhfE1ixMoNKVxUXX3gWLVokMHf+CuYvXElSYjwprX5p9xs3ZRMW5qBzp7ZYrVbSUlOY/dMS+vbpRveTO9V7jPDwsFoP4C9bsY7UmsUACgpL2LBhK2cNG0j7dqksX5nB5Ck/s2jxarZk72BAPX/eSI6Mhiwu1L1bp1rtsEf3zo1qiwClZRUsW5ERXN27U8c0xk+czfwFK/nx5yVYLRZ69eh6WG1nfwsWreKUXicRHx9LTHQUfr+f9HWbOe+cQbRMTjys4xyJNtqQxYXM33ufU05u1Pferm0b3FVuPvtiMvMXrGT6rAXExcZw9pmn0rJFIm63h0/+PYGffl5GWmpLRl10NpGREXw/dS6rVm+guKSM8opKhp83pNYCGv/+YhI/TJ/HwsWraZvWmrOGDTykGRhydPi1xYV8Pj+9e3Wt1Rbbt2/T4La4NmMz2dtyufSSc4JlMbHRTJj8I5ER4XzyWe1zz8pV6+ucj/Lzi6pXw+3Xg6fHvMfyFRksWbaW884+nS6d2xEeHsb4ibNZtXoDrVOSef3tz1m5eiOZWdu55OKzaJH8y59VkqNTQxYX8vv9dcZFCTV9fGNszd5JWVkF/ft2x2azktqmFR//azxz5i2ntLSCq/94CZGREXi8Xr4ZP5Ot2bmcPezUBp039tm4KZtAIFDnz6N07JDGhMk/MuvHxaxas4EbrruMFsmJ5OzYHWzj++cEAN//MIeRw88gMjKcXbv2MnnKHDxuD4uXrjkiffGRWlyopKSMU3qfbA79qhP673iWlTtZtmId55v+DlBVlZup0+dz/nmDG3xl4kCqlyY36qzC2FCGYeByuYmICGvyB4nlyGjI3/EMper2E17ruF6vj0AgEOx4qJk1XlXlrnWnpKHqO0ZjuD1ejIBBRET9v1U5fA39O56h5HK5sdtttfrDw207DXW4xznUNtrQv+N5pBgGuFxVhIU5sNtrX3QNBAIEAkatcsMwcLs99S5KtE9VlRu73V7n/eTY0pC/4xlq9Z176ivbxzDAVVVFZER4rUG23x/A6/URERFGIBDA7fYe0rlLmkdD/o5nqO2bdrs/j8eL1WoN9nWHe97YZ9+CWIfC5XITHh6G1Wo5In3xkfg7nofjhE48RZpCcyeeIhwlieeJqKkTT5EDORoSTxGOksTzRNXciaduoYmIiIiIiEhIKfEUERERERGRkFLiKSIiIiIiIiGlxFNERERERERCSomniIiIiIiIhJQSTxEREREREQkpJZ4iIiIiIiISUko8RUREREREJKSUeIqIiIiIiEhIWXblFRjmwuOFBbA77FgsFnNIpOkY4PMHsNtqrvOoOUpzMMAwDAKGgc1qVTtsKjVnWH/Aj81q0/cuzceoaY5GAItFfYA0IwN8fj92m636tdpikwkEDCyAzV7z3QNNmSZZPF7fcZt42m1WvD6/Ek9pdiWl5STEx5qLRZqUYRhUVLiIjY0yhyTESkvLiVcfIM0sEAjgrHQRGxNtDok0qcrKKqxWCxER4eaQhJDb7cHvDxAVFWEONQmLYRjHbeJpGAZen58wh90cEmlS+YUlJCfGYbVqdrs0H6/XR3mFi6REJUBNKRAIUFRcRovkBHNIpEm5PV6clS6SEuLMIZEmVVrmxGq1EBujC6FNqcLpwu8PEB/XPBefNAoWERERERGRkFLiKSIiIiIiIiGlxFNERERERERCSomniIiIiIiIhJQSTxEREREREQkpJZ4iIiIiIiISUko8RUREREREJKSUeIqIiIiIiEhIKfEUERERERGRkFLiKSIiIiIiIiF1wiaeRUVFlJWVm4tFmtzO3FwyM7PYmp1NSWlpsNzj8bAmPb1W3cPx7nsfmIsA2LhxExUVFeZiOcFUVFSQmZlFZmYWlS6XOXzISkvLgu+7/wawbPkKc/UTkmEYZGdvY/2GjbjdbnNYpMls2bo1+BvdtWu3OSzSpAoKCmuNT/x+P9u2bSc9fa3G8MeoEzbxnDFzNitWrjQXizS5cePeZOas2cyZM49nnhnDe+9/CIDX62VHzk5z9UM2Y+YscxEAeXl7cFZWmovlBOPxePj3518w/rsJ+Lw+c/iQ7d27lzlz5zHlh6nc98Bo5sydx5y58zAMgy1bthIIBPB4PMyZM9e86wnj5VdeY968+WzZsoV773tQF4Kk2dxzz/3B3+j6DRvMYZEmM3/BQq659gbWrcsIlr3x5jvMnTef7G3buOOuv7EzN7fWPnL0sz311FNPmQuPJ4GAgc1WN79el7GemJhoOnXsGCzLycmhtLSU+Ph4AJYvX0FCYiIOhwO/38+8efNZvmIFhmHQqlVLtmZns2DBIrZmZ5Oa2gaHw7HfEUR+UemqIioyHIvFYg4xY8Ys/vrXPzHsjKEMH34+o0c/wg03XIfP78flcpGamorLVcWSpUtZsXIVRiBAy5YtoaaNgoWZM2ezd+9e2rVri9Va3d7XpKczb958CgsK6dChA19//S1nnXkmP/70E8VFxbRtm4bFYsHpdJKYmEBERITpk8nxpjrJ8xEZGW4OERkZSUFhAR07dKRnzx5kZKwnIiKCn36eg8/no0WLFqxek868+fOpKK8gLS0Vi8XCrl27KS0rY/XqNaxcuZrYuFji4uKC75ucnMSAAf3p1LkTGzdu4pGHH2TAgP5YLBaKiotp164t3377HXPnzccwDNqktsHn8zeqvRcVFTF79k9kZKwnLDyMpMTE/f5lzc8wDFxVbqKi6v+NvfHWOzz37NN0O/lkNmdm0qZ1a5KTk83VRA6b3x/A6/URGVG3D6h0uUhPXxv8jXbu3MlcReSIcbu9WCwWwsPqjp0LCwtZtGgJ/fr1JTkpibZt2wIwZMgg+vbtQ/du3bBYrBQXF9O1axfz7nIQHq8PwzCICA8zh5pE3YzsBJaevo709HXB119/M57y8upb+WOef5Ft27fTtWtXLDUD++3bc+jcpTN+v5833nw7uJ9IY+XvzSc3dxfz5y/gwgtHYLFYKC8v5+tvxkPN1PBAIECP7t1465132bFjBwAvvfIakyZ/T/ce3VmTvpZJk6cAMGXKVMaPn0DXLl0ID68eYFisVr6bMJFuJ5/MsuUrmDT5e6i5E5qXtyf4WUSoaRcvvvQyUVFRJCYlMuWHqUybNoMe3buzdNlyPvv35wBs2ryZBx98GLvdQfv27bjv/tENni762rg3AHCEOYiPjyMtLRWH3d7o9v7oY0/QunUKXbp0PibvFg6/4Hw+++xzFixcRFlZmQb80iwqKiqodFUya9Zslixdhs935GY+iDRGcnIyN914PVZr3Yv1JSUlbNy4iZ/nzKFf3z7msBzllHg2QGlpGRs2bOCG66+jX98+9OzRHYCzzhxGQnw8HTt0IGO9pqTIofth6jQmTJzEzFk/0r9/P3OYtLRU+vXtiyPMwUldu7JjR/X0Eo/Hw9VX/ZGePbrzm1GXsGnTZgD+9/U33P23O+nfvx+DBp0OgM/n45qrr6J79278ZtQlbNiwsdYxRMxGjhzBWWcOI6VVK/73v2+47dab6d27F3fcfiv/+c9/CQQCAJx33jkMHTqYgQMH0KtXT/ILCsxvdUA2m42OHTqQkpJCr149cTgcjW7vCfEJ7Nmzl5NOOom+fY69gcig009j8ZKlfPrpZ/Tp0we73W6uIhJy8XFxXPG7/yM2NpbMzCwe+fvjwd+4yNHiP198yaf/+jdt09KIiIw0h+Uop8TzIDweDwCVlZWkpKTUiu3atZt773+QpcuWUVhURMDvrxUXaYwbbriOO26/lWeefoKJEyfXeW7h40/+xceffMr27Tm4XC4MjGAsLi4WAJvNit9ffYU6v6Cg1nTHfeLjq8uq66rNysG1qpniClBaVkZMTDQAVquVmJiYYBtKSEgI1rPbbIfdHza2vT/91ONYrBbu/NvdzJ03P1j3WFBWVs77H3zEm2+8xocfvMvOnTtZsmSpuZpIyIWHh3P+eecyaNDpXHvNVfh9fnJ37TJXE2lWd9x+G2NfeI5Bp5/G559/YQ7LUU6J537i4mIpLateVdTlqmLtuuppt8nJSWzZsqXWFK6ly5Zx4cgR/PayS+nYoX2wXORw+P1+ymqmd+9jGAbffDuee+6+i/POPQfD+GUQfiCn9O7Nxo2bzMUih+y0UweyaXMmAHv27iUpqfr59yPBarPhdDrhENt7eHg4F190IW++/hqffPIvc/ioVlxcTKtWLbHb7VgsFrp27cLe/HxzNZGQ2/9ipNvtZsfOnSTUrHkh0twMw6h1B94wjHrXzZCj2wmdeL799rvcctud3HLbnfwwdRr9+vVj8eKlvDD2JV55dRy9e/UCICwsjAcfuI877rybp595js//8yUDB/Tn66+/ZeyLr/D9lKnBB59FDsUzz4zhvvtHc98Do7n8t5fSNi0tGLNYLIy65GIeefQxnn3uBaKjq+86Hcxtt97MuDfe5Iknn+GJJ58xh0Xq2L49h2nTZzBx0mT27Kn7zO9f/vInPv7kU55+5jmee+4FHn7oQXOVQ9a1S2dWr0ln7IuvUFhY1Oj2/vAjj/HSy6/y3JgXuPqqP5rDR7X27duRmJjI08+O4ZVXx7Fs2QrOO/ccczWRkNuwYSN333s/z415gTvvuofbb7uF2NjqGQYizc3n83H3Pffz7HMv8PQzzzFp8hR+f+UV5mpylLMYDbmcfIwyDAOvz0+Yo3HPy7hcVURE1F2B1O/343a7iYyMxGKxYBgGVVVuIiPrX6lQZJ/8whKSE+OCK84eCrfbjd1ux2azmUP1MgyDyspKIiIiGryPHN+8Xh/lFS6SEg99MOl2u4MLVh1J1Su/VhFV88xOY9q7YRi4XK5g33y0CQQCFBWX0SL5lynJZoFAAL/ff8TuIovUx+3x4qx0kZRQ91EMatrhvt/S4ZyvRH5NaZkTq9VCbEyUOXRQlS4XNqs1JOehE0GF04XfHyA+7tcv6oaCepV6REZG1Dt4sdlsREVFBWMWi0VJpzSZ8PDwBg3C97FYLERHRzdqH5FfE6qTvcViCSadNLK9WyyWWn3zschqtSrplGZntVqJjo5W0ilHrajIyJCdhyT01LOIiIiIiIhISCnxFBERERERkZBS4ikiIiIiIiIhpcRTREREREREQkqJp4iIiIiIiISUEk8REREREREJKSWeIiIiIiIiElJKPEVERERERCSklHiKiIiIiIicAGy25kv/LDt37TXMhccLm9VKWLgDjtt/oRwrLBYLhqGGKM3LMAzsdht+f8AckhBTHyBHC4vFimGoD5DmZRgGFosVDdKbXlRUBBHhYebiJmEJBI7nM6GB1+fHYbebAyJNqqCohOTEuJpOVqR5+Hw+yitcJCbEmkMSQoYRoKi4jOSkBHNIpEl5vF6clS4S4+PMIZEmVVbuxGq1EBMdZQ5JCDkrXYCF6KgIc6hJWIzj+BKsYVQnnmEOJZ7SvPILqxNPq1WJpzQfr7c68UxKVOLZlAKB6sSzRbIST2lebk914pmUoMRTmldpWXXiGRujxLMpVThd+P0B4uOizaEmoVGwiIiIiIiIhJQSTxEREREREQkpJZ4iIiIiIiISUko8RUREREREJKSUeIqIiIiIiEhIKfEUERERERGRkFLiKSIiIiIiIiGlxFNERERERERCSomniIiIiIiIhNQJm3gWFRWRnb3NXMzu3Xns2rXbXCwSMjtzc8nMzGJrdjaVLpc5fMg2btxERUWFuVjkgAKBANnZ21iTnk5+foE5HHKlpWWkp68lMzMLn89nDtdr2fIVAGRkrGfJ0mXm8DEjEAiQk5NTq8zpdJKevpYdO3fWKhcJhYKCQjIzs2ptlZWV5moiTaagoLDOOGZnbi4ZGetxu921yuXYcMImnjNmzuaaa2+gqKgoWOb3+7n73vv56J8f16orEkrjxr3J9BkzmTZtBn/+883MnTffXOWQ5OXtwalBgzSQYRg89fRzTP5+Chs2bOLd9z/A6/Xi8XiYM2euufoRl5GxntEPP8qGjZv46ec5/PTTHADmzptPVVWVuXrQli1bCQQC7M3PZ1fuLnP4mFBeXs5zY8byxJPPBMt27NzJo489QVbWFr788is+++zzWvuIHGnbt29nztx5we2B0Q/rQrw0m/kLFnLNtTewbl1GsGzy91P48MN/smnTZh4c/QglpaW19pGjn+2pp556ylx4PAkEDGy2uvn1uoz1tGzZAmelix7duwGwZk06TqcTfyDAOWefRSAQYPWadBYvXkpRURFpqalYrVYyMtYTERHBTz/Pwefz0aJFC9akpzNv3nwKCwrp0KEDPp+PefPms3zFChwOB8nJSeaPICeQSlcVUZHhWCwWc4gZM2Zx881/5txzzmbw4EG88+77jLrkYqgZfM6e9SO5ubmkpqZit9txu93MmTuPlStXUeF0kpaWWm+Z0+kkMTGBiIgI8yHlBBUIBPB4fERGhptDlJaW8tX/vuaF55+jd+9enHP2WQB8++13zJ03H8MwaJPaBovFUm/fZu4XPR4vpWVlrFi5io0bN5HSKoXdu/P46ee5VFVV0aZ161rH/+bb8Vxy0YWMHDmcgQMH0KVLZ3bm5vL88y8SFRWFz+cjJjaGzKwtlJaV8uNPP9OzZw+Kiovp2LED27Ztp6qqih49urM3P5/NmVm0ad0ar9fL3HnzWb1qDYmJCcTExFDpctV5n2XLV7Bw4SL27NlLmzatsdvttT7f4TAMA1eVm6io+n+LkyZ/z/ALzmfu3Hlc/tvLAIiPi2PE8Avo1asnQ4cO4e+PP8k1V//RvKtIo/j9AbxeH5ERdfuA1NQ2DBjQnwED+tO5cyeWL1/Bdddeba4mckS43V4sFgvhYQ5ziMLCQhYtWkK/fn1JTkqibdu2ADz66OO89eY4evfuRcuWLVi4aDF9+pxi3l0OwuP1YRgGEeFh5lCTqJuRnUCGDTuDadNnBF9Pmz6D8847N/ja7/eTl5dHzx7dWb58BTNnzQZgxsxZvPjSy0RFRZGYlMiUKVMZP34CXbt0ITy8ujN/YezL5BcU0LVrV9597wNWrFgZfF+RAyktKaVtWhoAW7ZuZczzY+nStTNVVW5GP/QohmHwz48/xel00rtXr+CdoPrKZsycRV7enlrvL3IgcXFx2Ow2pk2fgdfrDZY7whzEx8eRlpaKw24/YN9m7hc3bd7MffePJiK8+oLL7Xf+jQULF9Lt5JN4/4OP6jzq0LdvH/771dfszM0NltmsNiwWC6lt2pCQkEB5eTljnh/LzJmz6dKlCwCvjXtjv3epfozi+edfDP6OXnl1HJWVlXTq3IlHHn2cktLSOu+zcOFi5s9fwCm9e2OxWDCMWm8Zclde8Ts6duxgLsZmswGQu2sXfU7pbQ6LhMykyVP4wx+uNBeLNInk5GRuuvF6rNbaF+vDwsKC/WJ8fDxZWVm14nL0O6ETz4iICLp3O5nMzCzKysqpcDpp1bJlMO5wODj3nLOJjIygc+dOtQZKI0eO4Kwzh5HSqhX/+/ob7v7bnfTv349Bg06ntLSMrKwsrvjd/9Gvbx/uuONWJkycHNxXxGzM82O5+977+fSzf3P7bbcAMGvWj9x4/XX07dOHUaMuJj4+ni1bt5KcnExOzg5atmzBWWcOg5pO2lwm0hhWq5Vxr77Cnj17+NNfbmb2jz9hs9no2KEDKSkp9OrVk8pK10H7tv37RYALzj+PIUMGc+HIEezcsZM//uH39OzZgwvOP7fOc4tnDB3Cdddezbhxb/LkU89QUlpKmzatiY2Lo3v3bqSlpQLg9Xq59Za/0r9f31r7A5RXVPD0s2MY/eD9tGzZgrKyclatXkOXzp2JCA+nZ88erF61ps77xMfHsWPHThxhv/T5Rwu3280bb77NbbfebA6JhESly8XMWbM4Y+gQc0ikWV122aW8Nu4NJk6azOf/+QKjqa8SymE7oRNPgBHDL2DGzFnMnTuPkSOG14otXLiYZ54dw4aNmygrK6vVwPdPUPMLCoiLiwu+rnJXkZycHHwdGxtLWXlZ8LWI2aMPj2b0A/dTVlZOfHw8AE5nJbGxscE6SUmJVDor+f2Vv2PQoNN5bsxYPvpH9fPI9ZWJNFZcXCw3XH8dH7z3Dl9++VWd5PDX+rb9+0WAxMSE4H+3bNUyeKXabrPj9/v3q1ltwID+vPrKi5xzztm8994H5jAAnTp2rHfKOsDUqdOoqnIHF51wOp0YhkFW1haysrbQo3t3OnXqCKb36dWrJ3fdeTvffDOeRx597KhZUMXr9TLm+Re59pqraN++vTksEhIzZ87i/y6/PPh7FTla/PEPV3L1VX+kZ48eXHbpb+jYsbo/l2PHCZ949uzZg5WrVjF12nQGnX5ardjUadO59Za/MnLEcBITE2vF9ndK795s3Lgp+LpFcjJ5eXk4nU4ANqzfSO9evfbbQ6Q2i9VKWloqQ4cMYsoPUwHo0aMbGes3AODz+UhPX0v7Du2xWCycdupAXnv1JVasXElZWXm9ZSKNsX8iGBUVVf2ccIUTq80W7MtC2bftf/z27dtRUlK9aITdZsPlOvDiQvv7/ZVX8OTjf2fM82OpdLlo0SKZgN/POeecxahRFzNq1MV06FB/AtepU0ceGv0AJ598MmvXrjOHm5zX6+X5sS9x+eWX0bdPH3NYJCR8Ph9fffU1I4afbw6JHBVSU9vQqVNHvv1uAmedpRlex5oTPvG0WCwMv6B6AYd9z2fuM3z4+Tw3ZixjX3yZ3bvzasX2d9utNzPujTd54slneOLJZ7DZbIwe/QCjH3qUJ596hpmzZvH7K68w7yZSx++vvJIvv/yKwsJCLjj/PLKzs3ns8ae4+577ueaaq0iIj+eTTz9jzPNjeWHsS/To3p3Y2Jh6y0QaY9euXdx40194/Imnufve+0lJSaFbt5Pp2qUzq9ekM/bFVyguLglZ3/be+x9yz70P8NjjT/Haa2/w17/8CYCLLhzJE089zfff/2DepV6pqW24/vpreeONt3A4HDzy8Gjuu380Y54fy+iHHq23L583fwGPP/E0r7w6jqysLHr06GGu0uS+nzKVn378mfc/+IhbbruTW267ky1bt5qriRxR8+Yv4NxzzyE6OtocEml2S5ct5+VXXuP+Bx/igvPPo0vnzuYqcpSzGMfxBGnDMPD6/IQ5Dn11Qp+vevUnh6Puqlv7MwyDyspKIiIigtNTDMPA4/HUSWjlxJNfWEJyYhxWa+Ov9Xg8HhwOR63phS5XFQ6HvdbKm/WViezP6/VRXuEiKfGXKdz7CwQCVFZWEh0dXau9Va/KWkVUZGTwdSj6tqqqqupVDk3v63a7sdvthzz1b1//HBkZecDfoNfrJRAI1Dn2kRAIBCgqLqNF8i9Tj0Wag9vjxVnpIinhl8eDRJpDaZkTq9VCbEyUOXRAfr8ft8cTPBdJ41U4Xfj9AeLjmufiUv1nYAmy2+2/mnRSc+c0Ojq61sCovgGUSGOFhYXVeaYtMjKiToJZX5lIY1itVmJiYuq0N4vFUutEH6q+LSIiot73DQ8PP+Skk/365wMlndQsJlffsUVE5Ohgs9mUdB7jDnwWFhERERERETkClHiKiIiIiIhISCnxFBERERERkZBS4ikiIiIiIiIhpcRTREREREREQkqJp4iIiIiIiISUEk8REREREREJKSWeIiIiIiIiElJKPEVERERERCSkLFVut2EuPF5YLBZ8/gB2m/JraV7FJeUkJsSai0WaVCAQoKKiiri4KHNIQqykpJwE9QHSzPz+AM5KF3Gx0eaQSJNyOquwWi1ERoabQxJCbrcXm81GRLjDHGoSlt15hcdt4hnmcGB3WPEHjtt/ohwjLIaBYbGYi0WalBEwsNmsBAz1iU1NfYAcLawWi/oAaXZGwMBiVZ/YHKIjIwgLs5uLm4TFMI7f3scwDLw+P2GO5vlyRfbJLywhOTEOq1V336X5eL0+yitcJCXqzltTCgQCFBWX0SI5wRwSaVJujxdnpYukhDhzSKRJlZY5sVotxMZoBk5TqnC6CAQM4mKb53vXKFhEREREROQE0Jz3HJV4ioiIiIiISEgp8RQREREREZGQUuIpIiIiIiIiIaXEU0REREREREJKiaeIiIiIiIiElBJPERERERERCSklniIiIiIiIhJSSjxFREREREQkpJR4ioiIiIiISEidsIlnUVERmZlZwa2oqAiAd9/7wFxVJKR25ubWaouVLpe5yhG3bPkKc5FIsC1uzc6mpLQ0WJ6RsZ7Fi5fUqnu49ubnU15eHnydn19Q65glJSXBfvlQbNy4iYqKCnPxUWn37rzg7z9ryxZzWKTJuN1u0tPXsmvXbnNIpMkVFBTW248bhsGGjRsxDMMckqPcCZt4zpg5m48/+ZQ5c+cxZ+48tufsqCmfZa4qElLjxr3JlB+mBtti2X6D71DZsmUrgUDAXCwnuHHj3mTmrNnMmTOPZ54Zw3vvfwg1SeKOnTvN1Q/LypWr+GHq9ODrl155lS+++G/w9RdffkVm1qEnYXl5e3BWVpqLj0pvv/te9fc+dx4LFywyh0WaRHl5OXfedQ+bNm/mX5/9m+8mTDJXEWky8xcs5Jprb2DdugxziBkzZ3HtdTfh8/nMITnKnbCJJ8CIEcP5y59v4i9/von+/fqaw+Tk5PDt+O+YN39BcJCekbGegoJCpkyZypQpU4NX7AOBAKtWr+G7CZNYsHARfr/f9G4iB3bVVX8ItsXWrVsDsGrVar75djzr128I1lu+fAVFRUV8N2EShYWFZGSsp6ysnGnTZ7Bx4yZcrirmL1jIdxMmHXS/1NQ2WK0n9M9fDuB3v7ucm268nldeHstXX31d54pyYWEhs2bNZtLk79m9Ow+AHTt2MGPGrOBWUFAIB+hD9zmld2+WLl0GQGVlJYZhsGLlyuDxFi5aTO9ePes9XqXLxfoNG8nasoVvvh0P9bTxli1bEB4WBkBpaRlTfpjKhImTyM8vCH4G8z5bs7MZP34CU36YGvw3NIWioiJuufkv/OXPN3H99deawyJNYvHipYwcOZwrr/gdjzw8mh9//InKY+TijRxfCgsLyczM4tprrzaH2L07j5UrVzFwQH9zSI4BJ/TIs6ioiJ25uezMza0zvTE7exvjXn+LHt27k5mZxeeffwE1V1leG/c67dq1BQuMfekVAPx+P3l5efTs0Z3ly1cwc9bsWu8n0hjTps9g/oKF9OzRg/988SWrVq0G4O133uOfH39KWloqkZGRzJg5ixdfepmoqCgSkxIpKioiEAjQo3s33nrnXXbsqL6Tb97vtXFvmI4oUi1/bz65ubuYP38BF144AovFUiu+Y2cuSUlJtGvXjnvve4BAIEB0dDRpaam0SmnF+x98hGEYB+xD90lLS2V7Tg5ut5s1a9I5deBAevXsSfa2bRQXFxMXG0t0dHS9xysvL2fM82OZOXM2Xbp0gXra+IyZs8jL20Oly8U99z1AfHw8rVNSuOe+B4JTePffp7LSxeuvv0W3bifTokULXFWhn/K+T3l5BXPnzWfOnLmUlf0y/VikKVksEBEeEXwdFxdL3p49teqINIXk5GRuuvF6rNba5x+/38+7733Abbfdgj+gGzzHohM68VywYBHffTeR776byO7dtZ9nmDV7NmecMQSr1cqpAwcwYeLkYOyyyy6lT59TuOTii9i8ORMAh8PBueecTWRkBJ07dyI7e9t+7yZycA8//Hduue1ObrntTipdLr766mvOGFrd/k477VTmzJ0HQElpKTfdeAOnn3YqUVFRAIwcOYKzzhxGSqtWpKWl0q9vXxxhDk7q2pUdO3IPuJ9IfX6YOo0JEycxc9aP9O/fzxymX98+tGvXjpjoaCIjIykrLycpKYlevXqyevVq7rjjVlq2bHHQPnSfM4YOITMzi8VLlnLqqQMYPGgQy5atIGP9BoYOHXLA4wF4vV5uveWvwdkqB2rj6WvSGTzodIadMZTBgwdx5RX/x9x58+vsk5SUSHl5OZUuF6edOpB2bdsG3yPUbr/1FiIjIqhwOrn73vub9G6ryD4DBvRnytSpTJr8PR98+A8ys7bUmfEg0py+/mY8l106ioT4eHNIjhEndOL5m99cwl133s5dd95Ol86da8VKSkrJzy8gK2sLOTk7uPWWvwZj8XFxteoCLFy4mGeeHcOGjZsoKytTZy2NMnbsGD54720+eO9toiIj2bN3Lztzc8nK2oLdZuesM4cF67ZokVxr31YtWwb/++NP/sXHn3zK9u05uFwuDH5ph+b9ROpzww3Xccftt/LM008wceJkduZWX7wA8Hg8PPLoY8yYOZPdu3fj8/sw9nsMITd3F+efdy78Sh+6z8AB/Ulfu5Y1a9Lp0rkzffuewoIFC0lPX0u/vn0OerxOHTvWuRtbXxt3VVXV6rPj4+NxOp3B1/v2iY6O5rVXX2L9+vX89Zbb2L49J1gn1IYOHczgwYO45OKLGDn8Apav0OJf0vSSkpJ47ZWXOfmkk/j9lb+jdUoKrVNSzNVEmkVu7i4mTZpMfkEBU6dNZ++evUyfPhOPx2OuKkexEzrxPJiuXbuSmJjIqFEXM2rUxYwYcYG5Si1Tp03n1lv+ysgRw0lMTDSHRRplQP/+dOncOdj+BjTgWQbDMPjm2/Hcc/ddnHfuObr4IYfF7/cH7y7uk7NjB9HR0Vxz9VUMGTKYoqJiAJxOJ2+/+x5/u+uOYN2G9KG9e/di8uQp9OvXF4vFQnTNXc2lS5fRrdvJBzxeY3Tp3ImVq1YHfw9r1qTTtWtXczUAEhMTueH667jtlpuZPmOmORwSgUCg1m91a3Y2LZLrJtAiTSEyMoLu3buxa9dukpOTiI6ONlcRaRbRMdHcccdtxMXFERcXh8MRRlxcbJ0LkHJ0O6ETz3ff+4A77rybO+68m1mmZzIvvmgkmZlZPPLoYzz19LN8/p8va8XNhg8/n+fGjGXsiy8HF8AQOVR33H4rH3z4D5559nn+/tgTLFq02FylDovFwqhLLuaRRx/j2ede0IBBDskzz4zhvvtHc98Do7n8t5fSNi0tGGvXti35BQWMeX4sL738Kn37nALAt99+R3l5BW++9Q5jnh/Lxo2bGtSHJiUlYbPbGXT6acGyYcOG0qZNaxwOxwGP1xjt27dn8KDTue/+0Tz8yGM4HHZOP+1UczVyc3cx+qFHeW3cG3z53/9x7jlnm6uERGVlJXfedQ/PPvcCf7v7PpKTkxk4cIC5mkiTeG3cGzzx5DOM/24id999lzks0mwS4uM5Y+iQ4JaYlMCQIYNxOBzmqnIUsxjH8W0RwzDw+vyEOezmUIO53W4AwsPDzaE6fD4fhmHoRyB15BeWkJwY1+iVZCtdLsLDwrDZbObQAbndbux2e6P2kROD1+ujvMJFUmKsOdQolS4XkRERDbrS3Jg+9EAac7wD8fv9GIaB3X7g84Hf78ft8RAVGWkOHZZAIEBRcRktkhPMIag5V7mqqghzOA76+UQOl9vjxVnpIimh7iNDHOI5R+RQlJY5sVotxMZo3YmmVOF04fcHiI9rnpsTjRsFn4DCw8MbPGCy2+1KOuWIioqMbPQAIDw8vNH7iDRGVGRkg5PAxvShB9KY4x2IzWb71aTOZrMd8aSzISwWC1GRkb/6+URC7VDOOSIiDaXEU0REREREREJKiaeIiIiIiIiElBJPERERERERCSklniIiIiIiIhJSSjxFREREREQkpJR4ioiIiIiISEgp8RQREREREZGQUuIpIiIiIiIiIaXEU0RERERERELKUlxabpgLjxd2mw0Am035tTSvCqeLmOhIc7FIkwoEArjdPiIjw8whCTGn00W0+gA5Criq3ERGhJuLRZqUx+PDarVgt1eP1aVp+P0BHA47Nmvz5EaWwqKy4zbxDAuzY7FY8Hp95pBIkwoEAlib6Ucuso9hGFisFjhue/2jV8AIYLWoDxARIXg+soKhE1JTi4oMx+6wm4ubhMUwjt//44Zh4PX5CWumL1dkn/zCEpIT45R8SrPyen2UV7hISow1hySEAoEARcVltEhOMIdEmpTb48VZ6SIpIc4cEmlSpWVOrFYLsTFR5pCEUIXThd8fID4u2hxqEhoFi4iIiIiISEgp8RQREREREZGQUuIpIiIiIiIiIaXEU0REREREREJKiaeIiIiIiIiElBJPERERERERCSklniIiIiIiIhJSSjxFREREREQkpJR4ioiIiIiISEgp8RQREREREZGQOuETz+LiYtLT15KRsZ6KigoAPB4Pa9LTzVUPy978fHJycszFIgD4/X6ysrawavUadu3abQ4fErU5aYy8vDwyM7NqbTtzc8nIWM/ixUvM1Q+b3+/nw4/+aS5usJ25uXi93uBrr9fLztzcWnUaa+q06ezenWcubhKBQKDO79Xv95OevpYtW7fWKhcJpYqKCtav30DWli3mkEiTKigoDI7N9zEMgx07d7Jq1WoqKytrxeTod8ImnoZh8MGH/+C5MWPZuGkzy5Yv5+133oOaAcyOnJ3mXQ5LWWkZhYVF5mIRioqKuPf+B5k4aTKbN2fyz48/JT+/wFytQebOm09VVRWozUkjbd6cyZy58/j4k0958613mDN3Hunpa9mbn8+OnUe2P6Qm0fr55znm4gYbN+5NioqLg68LCgoZN+7NWnUaa+PGTXUGOU2hvLyc58aM5YknnwmWBQIBRj/0KBnr1/P99z/w+X++rLWPSCgsWbKUJ596lsysLJ0/pFnNX7CQa669gXXrMoJlbrebxx5/kmnTplNQUIjTqcTzWGN76qmnnjIXHk8CAQObrW5+PX3GTPbs2cPjjz1K71496devL8OGnQGAz+/H5XKRmpqKy1XFkqVLWbFyFUYgQMuWLQFYvnwFYGHmzNns3buXdu3aYrVaychYj9Vq5aef5pCZmUWbNq0JDw+nqsqN3WEnMTHR9EnkRFDpqiIqMhyLxWIOMe71NxkxfDhXX/UHevfqydlnnUl0dBQAO3buZPasH8nNzSU1NRW73U6ly0Vm1hby8vKYv2ABPq+PlJQUdubm8vzzLxIVFYXP5yMuLk5tTmoJBAJ4PD4iI8PNITp06MCAAf2x2WwkJSVx/XXXcNJJXdm2bTsVFU6Ki4tZm76O+Pg4YmJiKC8vZ8PGTbRunQLA1uxsXK4qYmNjD9g/AixZuoxlS5cTGxvD7J9+5nf/91sAcnJymDX7RwoLi2jXti0Wi4WMjPVERETw089z8Pl8tGjRIvh5Z8yYxRlnDCUmOhpq7tIsXLSYkSOGEwgEWL0mncWLl1JUVERaair5BQXs2LGDli1a4PP5mDFzFp06dQz22zablTXpazn55JNITk5i06bNVFY6iY+PZ9nyFSxcuIg9e/bSpk1r7HZ78HM0hGEYuKrcREVFmEMATJr8PcMvOJ+5c+dx+W8vAyAjYz2lpaX8+U83MnjQ6bzx1tsMH34BDofDvLtIg/n9AbxeH5ERdfuASpeLF154iXGvvUzPnj1om5ZmriJyxLjdXiwWC+Fhdfu0wsJCFi1aQr9+fUlOSqJt27YAfDdhIj26d+fKK35Hly6dg2MlaTiP14dhGESEh5lDTaJuRnaCmDFjFv93+WX1JgLl5eV8/c14qLkbFQgE6NG9G2+98y47duwA4KVXXmPS5O/p3qM7a9LXMmnyFABmzJzFa+Nep127tmCBsS+9AsCmzZtZsWLlfkcRqZ5KN2v2j5x99pnmEFu2bmXM82Pp0rUzVVVuRj/0KIZhUF5ezp133c3W7Gx6dO/O+x98RGZmFjarDYvFQmqbNiQkJKjNyRHz1VdfE+Zw0KZNa+6970HcbjcFBYVMnDQ5WGfFipVs2rwZDtI/Tpg4ifnzF9C9Rzcmf/9DsP/Nzt7GuNffokf37mRmZvH5519ATX/64ksvExUVRWJS3Qsoe/L2sDM3l525ueTt2RMs9/v95OXl0bNHd5YvX8HMWbOxWqx8+GH11N51Get57bU32JyZCcDb776Hw/HLSXjdugz+88V/adOmDQsXLmb+/AWc0rs3FosFwwhWO2KuvOJ3dOzYoVbZ9pwcunbtEnzdvVs3cnce3lRikYPZtHETp59+GosWL+G77yYe8swbkcOVnJzMTTdej9Vae4z+408/06FDB76bMIn5CxbWismx4YRNPPML8klISABg1arV3HLbndxy252UlJbWqpeWlkq/vn1xhDk4qWtXduyoPvF7PB6uvuqP9OzRnd+MuoRNm6oHXACXXXYpffqcwiUXX8TmzdUDG5H6lFdUkJqaWu8FkFmzfuTG66+jb58+jBp1MfHx8cFnvTq0b89ll/6Gnj17cPFFF5KdvY02bVoTGxdH9+7dSEtLNb+dyCEbOXI4gwadzsCBA+jWvRv5BQcfkB6of5w4cTJ//vNN9Ojenav++HsCfj8As2bP5owzhmC1Wjl14AAmTPwloR05cgRnnTmMlFatgmX7/DB1Gt99N5HvvpvI1KnTguUOh4NzzzmbyMgIOnfuRHb2Nlq2bEFRURFut5uFCxdx5523sWTJUsrLy7FarMTFxQKQtWUL//r35zz6yGgcDgfx8XHs2LETR9gv79kUPG4PYWG/JMORkZG43e5adUSOpMLCQubPX0B0VBRdunTm0b8/jtPpNFcTaTY7d+xk8ZKlnHJKLzIy1vPdhEnmKnKUO2ETz3Zt27Jn714A+vfvxwfvvY3dZsPn9dWq9/En/+LjTz5l+/YcXC4XBr9c7t43ULHZrPj9v+wXHxcX/G+Rg4mNiWHXrl34fLXbHYDTWUlsbHUbA0hKSqSy5nmGVvsNwm12G/5A9QBeJBSS9rvbaLfZggnj/sxtuL7+saCwkNiYGIBabbukpJT8/AKysraQk7ODW2/5azDWqubxhvrcdNMN3HXn7dx15+3cdOMNwfKFCxfzzLNj2LBxE2VlZRg1tynPOGMo6zdsZN26DC6+6EIWL1nK+vUbOOOMIcF958yZR0lxCYGafXr16sldd97ON9+M55FHH2uyxSxiY2OCv3eAsrKy4HcqEgqRUVFcfPFFDBw4gD59TmHAgP5s2aKFreTokZCYwNVX/YGuXbrwhz9cyc9zDn2dAGkeJ2zieeGFI/nk089qrYpoZhgG33w7nnvuvovzzj0nOHgROVJsNhsXX3Qh302YaA7Ro0c3MtZvgJpBfXr6Wtp3aG+uVovdZsPlql5cSCSUYmJiKCr6ZfGRdRnra8Xr06tnT7K3bQMgp+axBYCuXbuSmJjIqFEXM2rUxYwYccF+ezXe1GnTufWWvzJyxPBazzgPHNCfCRMmMmBAf+x2O106d2by9z8woH//YJ0//+lGrrvuGt588+1gWadOHXlo9AOcfPLJrF27LlgeSt17dGfpsuVQs+Dd5s2ZpOmZOwmhrl06s25dRnCss317DknJSeZqIs1mQP/+bN2aDUDe7jzatG5triJHuRM28TzrzGGcOnAgf/rLzTzx5DM8+vfHqaioqDW1yWKxMOqSi3nk0cd49rkXiK5ZxELkSLr9tlvYsmUrf/7rLTz2+FPc9bd78Xq9XHD+eWRnZ/PY409x9z33c801V5EQH2/evZaLLhzJE089zfff/2AOiRxRLVu2oE3rNjz+xNM8+9wLRIT/+hTUv/71T7z44is8/8KLzJgxK/i4w8UXjSQzM4tHHn2Mp55+9rBXcB0+/HyeGzOWsS++XOvPo/Ts2ZOp02YwdGj1Hc5hZwxlwcJFnHRS1/32rj4/REdHM236DObNX8DjTzzNK6+OIysrix49etSqGypt09Lo1u0kHnr47zw4+hFu/utfsNls5moiR0xKSgoDB/Zn9MOP8uBDj9C/fz8tMCRHleuuvYaP/vExY54fyzvvvs+f/3STuYoc5SzGcXwbzzAMvD4/YY4Dr0BoGAaVlZU4HI5aSef+3G43drtdJ305ZPmFJSQnxgVX9qyP3++nqqqKqKioWs98ejweHA5Hvc+B1kftVQ7E6/VRXuEiKfHITdn0eDzYbLYGtzfDMPB4PISH111Vc98zjPXFGsvnq16570isAuv1egkEAof8uQKBAEXFZbRIrk60G8Pr9WK32xv8+xc5GLfHi7PSRVLCgR8J8vv9+P3+A46JRI6E0jInVquF2JjGr0zrclUREVH/XwqQg6twuvD7A8THNc/NtAOPgk8QFouF6Ojog3aw4eHhDR5UiRwqm81GdHR0nY40LCysTtnBqL1KUwoLC2tUe7NYLAdM4MLDww8Yayy73X5Ekk5qFis6Up+rsRpz0UnkSLDZbAcdE4k0t8jICPWLx6gTPvEUERERERGR0FLiKSIiIiIiIiGlxFNERERERERCSomniIiIiIiIhJQSTxEREREREQkpJZ4iIiIiIiISUko8RUREREREJKSUeIqIiIiIiEhIKfEUERERERGRkLIUFJYa5sLjhdUKNrsNjtt/oRwrXFVuIiPCzcUiTSoQCODzBQgLs5tDEmJVVW4i1AfIUcDj9RLmcJiLRZpUIBDAYrFgsVjMIQmx8LAw7PbmufdoKS1zHrdpWZjDDhbwen3mkEiTclV5iIwIMxeLNCnDMPD5/DgcSjybWlWVhwj1AXIU8Hp96gOk2RmGoaSzmYSFObDbminxNAzjuE08DcPA6/NXJ6AizSi/sITkxDis1ub5oYtQM+Asr3CRlBhrDkkIBQIBiorLaJGcYA6JNCm3x4uz0kVSQpw5JNKkSsucWK0WYmOizCEJoQqnC78/QHxctDnUJDQKFhERERERkZBS4ikiIiIiIiIhpcRTREREREREQkqJp4iIiIiIiISUEk8REREREREJKSWeIiIiIiIiElJKPEVERERERCSklHiKiIiIiIhISCnxFBERERERkZBS4ikiIiIiIiIhdUInnnv27GH1mnRycnIwDMMcrqXS5eLd9z7g2edeICcnhx07d5qriBySnbm5ZGZmsTU7m0qXK1i+Nz+fnJycWnUPxuPxsCY93Vws0mCBQIDs7G2sSU8nP78AgIyM9SxevMRctcH+88WXOJ1Oc7GYeL1etmzdyqrVa8whkSbj8XjYuHETW7ZuJRAImMMiTaqgoJCKigpzMYZhsGHjxl8du8vR54RNPL+bMInX33iLzMxMvv5mPFu2bDVXqWX8+Al07tyJh0bfj9vtobCwyFxF5JCMG/cm02fMZNq0Gfz5zzczd958AMpKyxrVzrxeLztydEFEDo1hGDz19HNM/n4KGzZs4t33P8Dr9bI3P/+wLrQtXbYcj8djLpb95Obu4v4HH2LZ0uXs2bNHgylpFpUuFw88+DCbMzNZsGARY55/0VxFpMnMX7CQa669gXXrMswhZsycxbXX3YTP5zOH5Ch3wiae33w7nkcefogrr/gd9993D127dgHA5/MxZ85cvvl2PJmZWQDs2buXZcuXs3t3Hlu2biUqKor4uDgACgsLmTVrNpMmf8/u3Xm1jiHSUFde+Ttuv+0WXn55LF98+V+A6naWEA+A3+8PtsuMjPX1llmsVlq3Tqn1viINVVpaSk5ODn+76w7++IcrefLxv+NwOAAIBAzmzV/A99//wJ49e4L7bM3O5vvvf2Da9BlUVlYGy7O2bOG77yaSnr4Wm9UWLC8tLWPKD1OZMHES+fkFeL1e5i9YGIwvXLiYwsJCAHbvzgv2wce7t95+l4cefIA//vH3XDhyBBaLxVxFJOR2795Nhw7tufQ3o7j+umtYu26d7npKsygsLCQzM4trr73aHGL37jxWrlzFwAH9zSE5BpywiecZQ4fw+X++oKysvFb5C2NfJr+ggK5du/Luex+wYsVKAv4AMdHRtGrZkoT4BDZs3MjqmulQO3bmkpSURLt27bj3vgfUScthKS0ppW1aGgCbNm9mxYqVAIx5/kW2bd9O165dsVirf7bmsvLycr7+Znyt9xNpqLi4OGx2G9Omz8Dr9daKffXV14Q5HLRp05p773sQt9sNwPbtOXTu0hm/388bb74NQGZmFq+8Oo6TTz6JLVuzWbxkKdTcTbnnvgeIj4+ndUoK99z3AOXl5bzzznu43W4qXS5eGPsiP/70MwDTps+gqLh4v09xfKp0uSgrK6OoqIhvvh3Ppk2bzVVEmkSH9u3ZnZfHTz/P4av/fcNll47CWnO+EWlKycnJ3HTj9VittS/C+f1+3n3vA2677Rb8AX+tmBwbTtge5Zab/0LHjh24+977+efHn+L3+yktLSMrK4srfvd/9OvbhzvuuJUJEyfTpk1rWrRoQZcunWnTpnWt9+nXtw/t2rUjJjqayMhIysprJ7IiDTHm+bHcfe/9fPrZv7n9tltqxUpLy9iwYQM3XH8d/fr2oWeP7vWWiRwOq9XKuFdfYc+ePfzpLzcz+8efgrGRI4czaNDpDBw4gG7du5FfUP3851lnDiMhPp6OHTqQsX4DAD/PmcMN111Lr149ufy3l9K+XVsA0tekM3jQ6Qw7YyiDBw/iyiv+j7nz5jNs2Bls2rSZ1avWcOON1wfvgC5espRTevcKfobjVWlJKVlZW8jdtYt+ffvyz48/VfIpzcJutzNk8CCmTp3ODz9MpfcJ8PuTY8vX34znsktHkRBfPRtMjj0nbOJps9m4+KIL+edH7+N0Opk5azZV7iqSk5ODdWJjYykrL6u13/48Hg+PPPoYM2bOZPfu3fj8Pgzd8ZRD8OjDoxn9wP2UlZUTb+pQKysrSUmpPYW2vjKRwxUXF8sN11/HB++9w5dffhV8tjMpKTFYx26zEfD72bVrN/fe/yBLly2jsKiIgL/66rO5DbdKaQWAq6oq+IgCQHx8PE6nk1MHDiB97TrmL1jAsGFnkBAfT3b2NqIiI4mKigrWP15FRITTt18fLhw5gq5du/Dbyy5l+YoV5moiIbd8+Qr27NnLSy8+z/vvvcP7H3xE8Qkw60CODbm5u5g0aTL5BQVMnTadvXv2Mn36TK0hcIw5YRNPf80gyWq10qFDe8rLy2mRnExeXl5wBcYN6zfSu9eBr/jl7NhBdHQ011x9FUOGDKaoSB20HBqL1UpaWipDhwxiyg9Ta8WSk5PYsmVLrZXd6isTORz7+kRqni9OS0vFWXHg1WiXLlvGhSNH8NvLLqVjh/bB8g4d2rM5MxNqFrxaX3MntEvnTqxctTq4cM6aNel07dqV3r17sWrVavbs2UtKq1acOewM/vnxpwwdOhgAt9tNec1MkpKSEvx+P4ZhBJ8FPdYlJCRQUVERXNF61+5dtGjRwlxNJOT27N1Lu5oZCpGREbRNS6O4pMRcTaRZRMdEc8cdtxEXF0dcXBwORxhxcbF6Jv4Yc8ImnjffejsPP/IYjzz6GIsXL2HkiBHYbDZGj36A0Q89ypNPPcPMWbP4/ZVXmHcNate2LfkFBYx5fiwvvfwqffucYq4i0ii/v/JKvvzyq1qD6rCwMB584D7uuPNunn7mOT7/z5f1lokcjl27dnHjTX/h8See5u577yclJYVu3U42VwsaOKA/X3/9LWNffIXvp0ylbdvqAeuFI0cwd+58nn3uBV5+5TV69eoJQPv27Rk86HTuu380Dz/yGA6HndNPO5Xo6GgCgQCDB58OwKmnDmTS5O/p378fAD/9PId//PMTAJ5+Zgzpa9dRUFDIFb+vu+jEschisXDHbbfy8CN/5+lnx7B+/UbOO/ccczWRkDtz2DDmz1/IK6+O49nnXiA1NZVOHTuaq4k0i4T4eM4YOiS4JSYlMGTI4OAieHJssBjH8brthmHg9fkJc9jNIQCcTicRERHYbL+sukjNfh6Ph/Dw8FrlB1LpchEZEaGrLnJA+YUlJCfGHdZCDX6/H7fbTWRkZLCt1VcmciBer4/yChdJibHmENT8Hc/Kykqio6Mb1J4Mw6Cqyk1kZIQ5RFVVFRERdcv33bG02+vvl838fj9+v5+wsDCqqqoIDw/HYrHgclXVe9yjUSAQoKi4jBbJCeZQ0MG+S5Ejxe3x4qx0kZTwy7R3M6/Xi9VqrTM2EjmSSsucWK0WYmOO/0cqjiYVThd+f4D4uGhzqEkc+ij4OBAdHV1vx2qxWBqcdAJEadAvTcBmsxEVFVWrrdVXJnKorFYrMTExDW5PFovlgIlSfUknNW22oUknNfXDwsKg5j33fbYDHfdYdbDvUqQpORyOesdGIiKH64ROPEVERERERCT0lHiKiIiIiIhISCnxFBERERERkZBS4ikiIiIiIiIhpcRTREREREREQkqJp4iIiIiIiISUEk8REREREREJKSWeIiIiIiIiElJKPEVERERERCSkLHv2FhnmwuOF1WbFggW/P2AOiTQpAwMLFnOxSBMzQO2wWagPkKOGpaYrEGlWBlgsaovNwGKxYDTTF///eEDGb3coTKQAAAAASUVORK5CYII=;" vertex="1" parent="JWi303rD80z22EchMW59-43">
          <mxGeometry x="40" y="451.71" width="966" height="200.29" as="geometry" />
        </mxCell>
        <mxCell id="JWi303rD80z22EchMW59-52" value="" style="strokeWidth=1;shadow=0;dashed=0;align=center;html=1;shape=mxgraph.mockup.containers.browserWindow;rSize=0;strokeColor=#666666;mainText=,;recursiveResize=0;rounded=0;labelBackgroundColor=none;fontFamily=Verdana;fontSize=12" vertex="1" parent="1">
          <mxGeometry x="2290" y="20" width="1050" height="820" as="geometry" />
        </mxCell>
        <mxCell id="JWi303rD80z22EchMW59-53" value="Page 1" style="strokeWidth=1;shadow=0;dashed=0;align=center;html=1;shape=mxgraph.mockup.containers.anchor;fontSize=17;fontColor=#666666;align=left;" vertex="1" parent="JWi303rD80z22EchMW59-52">
          <mxGeometry x="60" y="12" width="110" height="26" as="geometry" />
        </mxCell>
        <mxCell id="JWi303rD80z22EchMW59-54" value="https://www.default.com" style="strokeWidth=1;shadow=0;dashed=0;align=center;html=1;shape=mxgraph.mockup.containers.anchor;rSize=0;fontSize=17;fontColor=#666666;align=left;" vertex="1" parent="JWi303rD80z22EchMW59-52">
          <mxGeometry x="130" y="60" width="250" height="26" as="geometry" />
        </mxCell>
        <mxCell id="JWi303rD80z22EchMW59-55" value="Search" style="strokeWidth=1;shadow=0;dashed=0;align=center;html=1;shape=mxgraph.mockup.forms.searchBox;strokeColor=#999999;mainText=;strokeColor2=#008cff;fontColor=#666666;fontSize=17;align=left;spacingLeft=3;rounded=0;labelBackgroundColor=none;" vertex="1" parent="JWi303rD80z22EchMW59-52">
          <mxGeometry x="220" y="340" width="610" height="30" as="geometry" />
        </mxCell>
        <mxCell id="JWi303rD80z22EchMW59-56" value="Teams" style="text;html=1;points=[];align=left;verticalAlign=top;spacingTop=-4;fontSize=30;fontFamily=Verdana" vertex="1" parent="JWi303rD80z22EchMW59-52">
          <mxGeometry x="471.25" y="270" width="107.5" height="50" as="geometry" />
        </mxCell>
        <mxCell id="JWi303rD80z22EchMW59-57" value="Players" style="strokeWidth=1;shadow=0;dashed=0;align=center;html=1;shape=mxgraph.mockup.buttons.button;strokeColor=#666666;mainText=;buttonStyle=round;fontSize=17;fontStyle=0;fillColor=none;whiteSpace=wrap;rounded=0;labelBackgroundColor=none;" vertex="1" parent="JWi303rD80z22EchMW59-52">
          <mxGeometry x="290" y="390" width="190" height="30" as="geometry" />
        </mxCell>
        <mxCell id="JWi303rD80z22EchMW59-58" value="Teams" style="strokeWidth=1;shadow=0;dashed=0;align=center;html=1;shape=mxgraph.mockup.buttons.button;strokeColor=#666666;mainText=;buttonStyle=round;fontSize=17;fontStyle=0;fillColor=none;whiteSpace=wrap;rounded=0;labelBackgroundColor=none;" vertex="1" parent="JWi303rD80z22EchMW59-52">
          <mxGeometry x="550" y="390" width="190" height="30" as="geometry" />
        </mxCell>
        <mxCell id="JWi303rD80z22EchMW59-59" value="" style="shape=image;verticalLabelPosition=bottom;labelBackgroundColor=default;verticalAlign=top;aspect=fixed;imageAspect=0;image=data:image/png,iVBORw0KGgoAAAANSUhEUgAAA54AAADACAYAAABs47z9AAAAAXNSR0IArs4c6QAAAARnQU1BAACxjwv8YQUAAAAJcEhZcwAADsMAAA7DAcdvqGQAAFLOSURBVHhe7d13eFRV/sfx97T0HiCQ0EGpUlWK2AUsrK6/1d216xa7a8eydkWxYq+76rqurqsiRaSr9N4CoSUQCAQC6WUymXp/fySM5CZgAkxC+bye5z6Pc77nzh3GM+ee773nnlhKyysMI8BxyV3lwe6wY7GYIyJNy+Px4nDYsagxSjMyDAOv10dYmMMckhDS9y5HC38ggN/nV1uUZufx+LBYwWG3m0MSQoYBPp+f8PAm7gMsEGa3Y6lwVhl2m9UcPi74/dUZtcWqwb40n4ABxcXlJCbGYgFdCJFmYRjgDxiUlVeQEB+LusWmYRgQMAKUljpJSND3Ls3HMMDj8+Gu8hITE6m2KM0mYIDTWUV4uB273a622IRcLjcBA6KjIqA6H2yScak/4Mft8WExDMMwB48XLpcHA4iKDDOHRJpMwIBduwtpnZKIzWptkh+4iJlhgNvjo7C4lDYpyTrRNxHDAK/PR35BKW1a63uX5mMYUO504XJ5aNkiXm1Rmk3AgILCMsLD7cTGRKktNqGi4nKsNitxsdHQhInnPsfnrU4RERERERE5aijxFBERERERkZBS4ikiIiIiIiIhpcRTREREREREQkqJp4iIiIiIiISUEk8REREREREJKSWeIiIiIiIiElJKPEVERERERCSklHiKiIiIiIhISFkMwzDMhccLl8uDAURFhplDAFRUVPLdxB+x2+vm32H2MC677Bzsdrs5JNIoAQN27S6kdUoiNqsVi8VcQyT0DAPcHh+FxaW0SUnGqnbYJAwDvD4f+QWltGmt712aj2FAudOFy+WhZYt4tUVpNgEDCgrLCA+3ExsTpbbYhIqKy7HarMTFRgNggUaPS6uq3FS5PSTEx5pDv+qETjwnfv8T23fmcWq/HuYQ06bN57rrLuWkLu3NoSDDgK3ZO0hplUxMTBQAPr+f3Ny9dGjfxlxdTlANSTz/9fkkc1Et11/zGyz17VjD5XJTWFRC27QUc+iwFRWXUlFRSft2v7Tp/IJiIsLDiK3puOTo19DE89fa4g3XXmouCiqvqGTv3kJzMZ06tsV6oAMeAbm79hIW5qBli8RgWc6O3bRp3RKHo3kvHjY08Tyc731/JSXl5O7ei81mpV1aa6KjI81VflVJaTmTvv+J669p2DHl2NCQxLOqys1X30w3F9fS0La4PWcX8XGxJCQ0bnC6O6+AouJSevXoYg7JcaIhieemzdtYvDTdXBzUrm0K550zyFwctDe/iPJyZ62y8PCwwxonHahvLCoupbi4DJvNRlJiHHFxMbXiZs3Zxo9U4vn402/z8gv3m0O/yvbUU089ZS48Xvh8fgAcDps5BEBm5nZat0rmnLNOo13b1rW21emb6N69M0mJcebdgnw+H39/6i127sxj8Ol9ACgrc/L6W//mgvMGm6vLCcoAyitcxMREYrVY6v2Be70+WrZMOuCW2qblQRPPzKzt/Pd/Uzlr2EBzqEH8/gA/TJvLySd1NIeYPnMhn/x7At27dSIpKR6A7ybOxuPx0b5da3N1OYr5/QFcVW5iY6LqbYc0oC2mpbYy7xKUnb2T6TMXsHZdJlNnzKe4uIzMrBz69+uB3VZ/P3wkvPfhV8yYvYhhQwcEE81XXv8Xfft0Izqq8YnXkRYIBKisDN33DhAIGHzx3yl8O2EWVVVuMrNyWLh4NWcM6Weu+qtKSiuYMPknRpw/xBySY5zH68Pn8xMdFVFvW/T5/BgGddpfY9oiQKWrimdf+IDCohIG9O9pDh/Unj0F7N1bRIf2qeYQALt257Nx87YGfQ45OhlApcuN3W4lPMxRb1ssLCwhLi6mTvvbt4WHhx20DSxesoaFi9ewaEk6S5atZc/eQgqLSujd6yRzVQCWr1yPYRjBhKw+B+obp89cyA/T5rE7r4DJP/xMQWExpxzgODSgje8zacrPnHxSh4OO/xrLVeXBYrUQHl59U+5QEk+fz89Pc5Yy4oKh5tCvOqETz82Z27DbbXTp3M4cYvGSdLp163TQxDMQCDBvwQr8fj9RUZG0TUuhqsrD/IWruOC8wfj8flanb2LFyvXk7SmkTeuW2Gw21mZkYhgGi5esYWv2Tlq3bknmlhwWLVlDwAgEr9p7PF7mL1hF+tpNREZGEH8It7Sl+TUk8UxLbXXQ7dc6nfyCYjZuyq6TeO7NL2Lx0nQ2bNxKeLiDhPhYDANWrMpg6bJ15O0poEVyIj/PXcqCRasxDIOYmKhad0k2bsqGmk552BkDsFqtpK/bTGJCHO3bta73GJWVVazNyKS8vJIFi6vfNzIqgrlzl5O1dQepbVoFE4Rt23cxZ95y9uwtJC21FTZb3anvcmQ0JPE0tz3zdjAtWiQy6LRTaNe2NelrN/P3h/7KoNNOwW6zsWLVepYuW0uV203rlBZwgPbZmLazz4JFq4iLiSZn5276ntINgJ/mLGXQ6X2Ijoo87OMcbhttSOJp/p7N26/58eelrFu/hUdH/4XTTu3Naaf2rpV0lpSWM2fecjZuyiYuLjY4SydzSw5Ll60le9tOkpMSiIgIp8LpYtGSNYw4f0jNOW0la9I3UVpW8asXweTo9muJp91ur9P2zFtDLFy8mpjoSDI2bGHYGdUXhMznnpYtknA4HHXKfD4/WCClVTKFhSXMmbecTZuzCRgG0VFRfDN+BtnZO6moqKRd29Zs257L/AUr2bZtF9HRUcTWtG05ejUk8WyRnFCn7Zm3g+ncqS2DTjsFv99PWJiDW/5yJb17nYTX62PBolWsXrMRas5be/OL+M9/v6ei3EmFs4p2bVPqPW/s3zfub+OmbFq2TOLG6y5j6JB+fPTxeIYO7ktkZASr0zeyeEk6xSVlpKWmYLFYqHRVBdt4dU4AS5evZf2GrSQmxhEdFcnGTdl88dUPhIU58Pn8xERHHZG+uLkTz8adPaUOfyDANX8cxTfjZ1BZWVUrFvAH2LEjj9TUVqxdl8nE738CYOmytbz7wVeEhYexOSuH51/6iLVrN5MQH8s77/+X/IJiAN7/6H/szS+kTZtWvPP+f8ndtbfW+8vx470Pv+LNd/5zwO1QZ8Tv2JlHREQYcXExvP7255SVO1m8NJ1ZsxfToUMqHo8Xt8dLRUUldruNuLiYep9rHti/J3Fx0cyctdAcqvcYZeVOPv1sAgsXryY+LoZ3P/yKD/7xNVHRUWzO3M7X31ZP5craksM/PvmWtm1T2L59F//6fKL57aWJmdueeTsU02csYP6ClXTokMr0mQuZO38FHGbbMRt1ydmsSd9E1pYcc+iwjtNUbdT8PZu3X7N8ZQbnnzuIiIhwcwin08ULL/0Dv89PREQ4L732MbvzCqDmLnXLlklUVFTyzvtfmnflf99MY9v2XNq3T6W4uBSrVcOG41lVlbtO29t/++SzCeZd6rVw8WqGDOpLn14nsXxFBkCdc4/X56u3LHtbLkuXrQXg1Tc/w2azkpLSguLiMtxuD263h/Dw6t9zYVEJ73zwX9q0aUVUdCQVFbWnVsqxa9PmbXXa3/7bjz8vMe/SIO9+8F+2bMkhKSmB//x3CouWrKGqyo3H4yU6OpKYmOoL7/WdNxrC6/UBBnabjanT5zNtxgJatUpm2fJ1/PuL6kcq9m/j1TnBf3E4HLhcVbz+1r+hZtaAz+cnLi6GiIjwZu+L5y1YGfzu3//of1RWVtX6/7E2I9O8S72a9lMfh/z+ACef1IHevbry7YSZ1ZcOaoSFOTjvnNOJjo6kbVorcnN/SRxPP7U3Zw0byIUjzqDSVcXvr7iQs4YNpF3b1uTtqZ77vXFzNt26dSIiIqx6+m/N1Rk5/lxw3hAuGnnmAbdDNaBfD9q1a0NCfCxRkRHszS8iOjqC0rIKAoEAF5w3mOSkeE46qQOxMdGcfmrveu/yBwIBrvnjJcyYtYi9+UX7N/N6jwHg9fm59upRnH3mqXTp3I7+fbszdHBfzjvndHJ3V/8WFi5eTdcu7QgLc9CtWydWrFpPIHBoSbYcGea2Z94OxdwFK+jZowt2u42Tu3Zg+crqgejhtB2zqMgIfnf5cD7/cgo+f/Vsl30O5zhN1UbN37N5+zXl5c7gM9ezZi/i4cde5+HHXqeiopL0dZtJbdOSiy86iwvOG8zpp/Zm8ZI1AJx91mkkJcbRrl0bduTuMb0rREdHUlBYSnxcDBeOGGYOy3HI3Pb234YNHWCuXkfurr2UlVXQoX0q/fv1YOHi1QB1zj0J8bH1lu0vJjqKPXsL6dwxjSGD+pKQEEvr1i1ITW3F6af2JioyAoCSkjJOHdCLk7p2qLW/HLusVmud9rf/1q5t49dSKSwsIWvrDq679lLOPGMAl192PnPmLad9uzZER0XSrVun4BTZA503DmRdRibvffgVY178iN9cdDZxcTHMW7CCK/9vBEMH9+VPN1zO4qXpVFV5zLsy6LRTaj7PBRQUluByuenRrTMApw3sRYf2bZq9L26d0iL43Q8/fyjh4WG1/n9EhNe96FkfJZ77yaznSvmvqrkTdcXlI1iTvomt2TuDoXkLVvLam5+xffsuXFVuAkYgGNs3bdZutxEdFRm8zW2zWgkEAjidLmw2Gzt25JGTs5tOHdPo3LltcH85vpzUtf1Bt0OaTuFy88zz7zNv/gqKS8oIBAyMQIA+vU/mhusuZcHCVTz57LsUFZead63DoHpKyPnnDuLLr37AVvO83oGOARATExV8rs9htxEdXT39yWqzEvBX13E6q3A6q8jJ2U1BQTGjLjq71u9Emp657Zm3Q+GsdFFYVEJOzm7Cwhycfuoph9126jNkUN/gnfljrY2av2fz9msSE+PYs6f6LubZZ53Gk3+/rfrfaxh43F6ioqoH6ACxMdG4qtzk7NjNU8++y7qMTCoqnPXOrLj8svMZMqgvn/1nMm+//yWBmu9Ojk8REeF12p55+zWLlqzBWVnFw4+/zqefT2R7zm525+XXe+6pr2x/99x5LYkJcYx99WN+mDavVgwgLi6Gh+7/E3l7Cnj86bfI2LDFXEWOUeZ2V9/WWG6Pl/AwR7Dfj42JwuVym6sd9LxxIGmpKYy4YCiPP3wzF190FtQcb1/fG1Wz3oDH6621HzXtGAg+xlFfP9vcffH+33uXzm2x2ayH9P9DiSewOn0TL7/2CZ9/MZlP/z2RXQe4on4w0dGR/O7y4Xzz3cxg2YqV67ngvCGMuGAosTEHfli5Pq1aJmEB+vXtziUXncXFF57FSV10Je949d6HX/HsCx/U2g5X7u69uFxurvnjJZw2sDdVVdWdq9fro/vJnfjbHdfQNi2FtWszsdlsOCtd5reo48IRwygqLiW9ZkrFgY7RUO3aphAe5uDiC8/ikovOYsQFQ0O6CI38OnM7fO/Dr8xVGq1d29a0SWnJJRdV/38edNoph912DmTfnfl97flwj9NUbdT8vb/2xmfmKgc16LQ+/PjzUgqLSnE47ERG/nL1uUOHVLZm78Tt9mAYBhs2ZdOxQyoZ67M4+aQOXDrq3AOu9Oj3BzhjSD8ef+QWtm/fRd6euqsWy/Gjqspdpy1+u9+45tf4/QGWLE3nwXtv5NWxD/Dq2Ac4c2h/Fi1eU++5p76y/TkcdkZdfDZ333ENs2umVtqsViprft8+n59WLZO47urfcMlFZ7Fg4apa+8uxa9PmbXXa4tLl68zVGqVli0QCAYOdNbM7NmzcSqeO1Qv82Gy24CNzh3LeSEyMo0vndrVWtO3UMY2NG6vXydicuY2E+NiDLl60P2tNErrvMx0vffEJvbjQ4qVrWLcuk5yc3Yy4YChX/f5iCgpL+Py/U6h0uel2UkdapySbdwsKBALMmLWQi2qmQe1bUMPpdHHBeYPxBwJ8N2k2a9I3EREZTnlFJUMG9WXV6g0kJyfQoX0bSssqWLlqA+edczrUTOvq0rkdaakppKS04F//nsjS5euYMWshXbq0IzGh7jRIObo1ZHGh9u3aMHBAz1pbTM3dl4bILyhm5o+Lmf3TEqbPXMCSZelcPPJMlq1Yx7wFK1m7LpPEhFhO6tqBDZuy+fhfE1ixMoNKVxUXX3gWLVokMHf+CuYvXElSYjwprX5p9xs3ZRMW5qBzp7ZYrVbSUlOY/dMS+vbpRveTO9V7jPDwsFoP4C9bsY7UmsUACgpL2LBhK2cNG0j7dqksX5nB5Ck/s2jxarZk72BAPX/eSI6Mhiwu1L1bp1rtsEf3zo1qiwClZRUsW5ERXN27U8c0xk+czfwFK/nx5yVYLRZ69eh6WG1nfwsWreKUXicRHx9LTHQUfr+f9HWbOe+cQbRMTjys4xyJNtqQxYXM33ufU05u1Pferm0b3FVuPvtiMvMXrGT6rAXExcZw9pmn0rJFIm63h0/+PYGffl5GWmpLRl10NpGREXw/dS6rVm+guKSM8opKhp83pNYCGv/+YhI/TJ/HwsWraZvWmrOGDTykGRhydPi1xYV8Pj+9e3Wt1Rbbt2/T4La4NmMz2dtyufSSc4JlMbHRTJj8I5ER4XzyWe1zz8pV6+ucj/Lzi6pXw+3Xg6fHvMfyFRksWbaW884+nS6d2xEeHsb4ibNZtXoDrVOSef3tz1m5eiOZWdu55OKzaJH8y59VkqNTQxYX8vv9dcZFCTV9fGNszd5JWVkF/ft2x2azktqmFR//azxz5i2ntLSCq/94CZGREXi8Xr4ZP5Ot2bmcPezUBp039tm4KZtAIFDnz6N07JDGhMk/MuvHxaxas4EbrruMFsmJ5OzYHWzj++cEAN//MIeRw88gMjKcXbv2MnnKHDxuD4uXrjkiffGRWlyopKSMU3qfbA79qhP673iWlTtZtmId55v+DlBVlZup0+dz/nmDG3xl4kCqlyY36qzC2FCGYeByuYmICGvyB4nlyGjI3/EMper2E17ruF6vj0AgEOx4qJk1XlXlrnWnpKHqO0ZjuD1ejIBBRET9v1U5fA39O56h5HK5sdtttfrDw207DXW4xznUNtrQv+N5pBgGuFxVhIU5sNtrX3QNBAIEAkatcsMwcLs99S5KtE9VlRu73V7n/eTY0pC/4xlq9Z176ivbxzDAVVVFZER4rUG23x/A6/URERFGIBDA7fYe0rlLmkdD/o5nqO2bdrs/j8eL1WoN9nWHe97YZ9+CWIfC5XITHh6G1Wo5In3xkfg7nofjhE48RZpCcyeeIhwlieeJqKkTT5EDORoSTxGOksTzRNXciaduoYmIiIiIiEhIKfEUERERERGRkFLiKSIiIiIiIiGlxFNERERERERCSomniIiIiIiIhJQSTxEREREREQkpJZ4iIiIiIiISUko8RUREREREJKSUeIqIiIiIiEhIWXblFRjmwuOFBbA77FgsFnNIpOkY4PMHsNtqrvOoOUpzMMAwDAKGgc1qVTtsKjVnWH/Aj81q0/cuzceoaY5GAItFfYA0IwN8fj92m636tdpikwkEDCyAzV7z3QNNmSZZPF7fcZt42m1WvD6/Ek9pdiWl5STEx5qLRZqUYRhUVLiIjY0yhyTESkvLiVcfIM0sEAjgrHQRGxNtDok0qcrKKqxWCxER4eaQhJDb7cHvDxAVFWEONQmLYRjHbeJpGAZen58wh90cEmlS+YUlJCfGYbVqdrs0H6/XR3mFi6REJUBNKRAIUFRcRovkBHNIpEm5PV6clS6SEuLMIZEmVVrmxGq1EBujC6FNqcLpwu8PEB/XPBefNAoWERERERGRkFLiKSIiIiIiIiGlxFNERERERERCSomniIiIiIiIhJQSTxEREREREQkpJZ4iIiIiIiISUko8RUREREREJKSUeIqIiIiIiEhIKfEUERERERGRkFLiKSIiIiIiIiF1wiaeRUVFlJWVm4tFmtzO3FwyM7PYmp1NSWlpsNzj8bAmPb1W3cPx7nsfmIsA2LhxExUVFeZiOcFUVFSQmZlFZmYWlS6XOXzISkvLgu+7/wawbPkKc/UTkmEYZGdvY/2GjbjdbnNYpMls2bo1+BvdtWu3OSzSpAoKCmuNT/x+P9u2bSc9fa3G8MeoEzbxnDFzNitWrjQXizS5cePeZOas2cyZM49nnhnDe+9/CIDX62VHzk5z9UM2Y+YscxEAeXl7cFZWmovlBOPxePj3518w/rsJ+Lw+c/iQ7d27lzlz5zHlh6nc98Bo5sydx5y58zAMgy1bthIIBPB4PMyZM9e86wnj5VdeY968+WzZsoV773tQF4Kk2dxzz/3B3+j6DRvMYZEmM3/BQq659gbWrcsIlr3x5jvMnTef7G3buOOuv7EzN7fWPnL0sz311FNPmQuPJ4GAgc1WN79el7GemJhoOnXsGCzLycmhtLSU+Ph4AJYvX0FCYiIOhwO/38+8efNZvmIFhmHQqlVLtmZns2DBIrZmZ5Oa2gaHw7HfEUR+UemqIioyHIvFYg4xY8Ys/vrXPzHsjKEMH34+o0c/wg03XIfP78flcpGamorLVcWSpUtZsXIVRiBAy5YtoaaNgoWZM2ezd+9e2rVri9Va3d7XpKczb958CgsK6dChA19//S1nnXkmP/70E8VFxbRtm4bFYsHpdJKYmEBERITpk8nxpjrJ8xEZGW4OERkZSUFhAR07dKRnzx5kZKwnIiKCn36eg8/no0WLFqxek868+fOpKK8gLS0Vi8XCrl27KS0rY/XqNaxcuZrYuFji4uKC75ucnMSAAf3p1LkTGzdu4pGHH2TAgP5YLBaKiotp164t3377HXPnzccwDNqktsHn8zeqvRcVFTF79k9kZKwnLDyMpMTE/f5lzc8wDFxVbqKi6v+NvfHWOzz37NN0O/lkNmdm0qZ1a5KTk83VRA6b3x/A6/URGVG3D6h0uUhPXxv8jXbu3MlcReSIcbu9WCwWwsPqjp0LCwtZtGgJ/fr1JTkpibZt2wIwZMgg+vbtQ/du3bBYrBQXF9O1axfz7nIQHq8PwzCICA8zh5pE3YzsBJaevo709HXB119/M57y8upb+WOef5Ft27fTtWtXLDUD++3bc+jcpTN+v5833nw7uJ9IY+XvzSc3dxfz5y/gwgtHYLFYKC8v5+tvxkPN1PBAIECP7t1465132bFjBwAvvfIakyZ/T/ce3VmTvpZJk6cAMGXKVMaPn0DXLl0ID68eYFisVr6bMJFuJ5/MsuUrmDT5e6i5E5qXtyf4WUSoaRcvvvQyUVFRJCYlMuWHqUybNoMe3buzdNlyPvv35wBs2ryZBx98GLvdQfv27bjv/tENni762rg3AHCEOYiPjyMtLRWH3d7o9v7oY0/QunUKXbp0PibvFg6/4Hw+++xzFixcRFlZmQb80iwqKiqodFUya9Zslixdhs935GY+iDRGcnIyN914PVZr3Yv1JSUlbNy4iZ/nzKFf3z7msBzllHg2QGlpGRs2bOCG66+jX98+9OzRHYCzzhxGQnw8HTt0IGO9pqTIofth6jQmTJzEzFk/0r9/P3OYtLRU+vXtiyPMwUldu7JjR/X0Eo/Hw9VX/ZGePbrzm1GXsGnTZgD+9/U33P23O+nfvx+DBp0OgM/n45qrr6J79278ZtQlbNiwsdYxRMxGjhzBWWcOI6VVK/73v2+47dab6d27F3fcfiv/+c9/CQQCAJx33jkMHTqYgQMH0KtXT/ILCsxvdUA2m42OHTqQkpJCr149cTgcjW7vCfEJ7Nmzl5NOOom+fY69gcig009j8ZKlfPrpZ/Tp0we73W6uIhJy8XFxXPG7/yM2NpbMzCwe+fvjwd+4yNHiP198yaf/+jdt09KIiIw0h+Uop8TzIDweDwCVlZWkpKTUiu3atZt773+QpcuWUVhURMDvrxUXaYwbbriOO26/lWeefoKJEyfXeW7h40/+xceffMr27Tm4XC4MjGAsLi4WAJvNit9ffYU6v6Cg1nTHfeLjq8uq66rNysG1qpniClBaVkZMTDQAVquVmJiYYBtKSEgI1rPbbIfdHza2vT/91ONYrBbu/NvdzJ03P1j3WFBWVs77H3zEm2+8xocfvMvOnTtZsmSpuZpIyIWHh3P+eecyaNDpXHvNVfh9fnJ37TJXE2lWd9x+G2NfeI5Bp5/G559/YQ7LUU6J537i4mIpLateVdTlqmLtuuppt8nJSWzZsqXWFK6ly5Zx4cgR/PayS+nYoX2wXORw+P1+ymqmd+9jGAbffDuee+6+i/POPQfD+GUQfiCn9O7Nxo2bzMUih+y0UweyaXMmAHv27iUpqfr59yPBarPhdDrhENt7eHg4F190IW++/hqffPIvc/ioVlxcTKtWLbHb7VgsFrp27cLe/HxzNZGQ2/9ipNvtZsfOnSTUrHkh0twMw6h1B94wjHrXzZCj2wmdeL799rvcctud3HLbnfwwdRr9+vVj8eKlvDD2JV55dRy9e/UCICwsjAcfuI877rybp595js//8yUDB/Tn66+/ZeyLr/D9lKnBB59FDsUzz4zhvvtHc98Do7n8t5fSNi0tGLNYLIy65GIeefQxnn3uBaKjq+86Hcxtt97MuDfe5Iknn+GJJ58xh0Xq2L49h2nTZzBx0mT27Kn7zO9f/vInPv7kU55+5jmee+4FHn7oQXOVQ9a1S2dWr0ln7IuvUFhY1Oj2/vAjj/HSy6/y3JgXuPqqP5rDR7X27duRmJjI08+O4ZVXx7Fs2QrOO/ccczWRkNuwYSN333s/z415gTvvuofbb7uF2NjqGQYizc3n83H3Pffz7HMv8PQzzzFp8hR+f+UV5mpylLMYDbmcfIwyDAOvz0+Yo3HPy7hcVURE1F2B1O/343a7iYyMxGKxYBgGVVVuIiPrX6lQZJ/8whKSE+OCK84eCrfbjd1ux2azmUP1MgyDyspKIiIiGryPHN+8Xh/lFS6SEg99MOl2u4MLVh1J1Su/VhFV88xOY9q7YRi4XK5g33y0CQQCFBWX0SL5lynJZoFAAL/ff8TuIovUx+3x4qx0kZRQ91EMatrhvt/S4ZyvRH5NaZkTq9VCbEyUOXRQlS4XNqs1JOehE0GF04XfHyA+7tcv6oaCepV6REZG1Dt4sdlsREVFBWMWi0VJpzSZ8PDwBg3C97FYLERHRzdqH5FfE6qTvcViCSadNLK9WyyWWn3zschqtSrplGZntVqJjo5W0ilHrajIyJCdhyT01LOIiIiIiIhISCnxFBERERERkZBS4ikiIiIiIiIhpcRTREREREREQkqJp4iIiIiIiISUEk8REREREREJKSWeIiIiIiIiElJKPEVERERERCSklHiKiIiIiIicAGy25kv/LDt37TXMhccLm9VKWLgDjtt/oRwrLBYLhqGGKM3LMAzsdht+f8AckhBTHyBHC4vFimGoD5DmZRgGFosVDdKbXlRUBBHhYebiJmEJBI7nM6GB1+fHYbebAyJNqqCohOTEuJpOVqR5+Hw+yitcJCbEmkMSQoYRoKi4jOSkBHNIpEl5vF6clS4S4+PMIZEmVVbuxGq1EBMdZQ5JCDkrXYCF6KgIc6hJWIzj+BKsYVQnnmEOJZ7SvPILqxNPq1WJpzQfr7c68UxKVOLZlAKB6sSzRbIST2lebk914pmUoMRTmldpWXXiGRujxLMpVThd+P0B4uOizaEmoVGwiIiIiIiIhJQSTxEREREREQkpJZ4iIiIiIiISUko8RUREREREJKSUeIqIiIiIiEhIKfEUERERERGRkFLiKSIiIiIiIiGlxFNERERERERCSomniIiIiIiIhNQJm3gWFRWRnb3NXMzu3Xns2rXbXCwSMjtzc8nMzGJrdjaVLpc5fMg2btxERUWFuVjkgAKBANnZ21iTnk5+foE5HHKlpWWkp68lMzMLn89nDtdr2fIVAGRkrGfJ0mXm8DEjEAiQk5NTq8zpdJKevpYdO3fWKhcJhYKCQjIzs2ptlZWV5moiTaagoLDOOGZnbi4ZGetxu921yuXYcMImnjNmzuaaa2+gqKgoWOb3+7n73vv56J8f16orEkrjxr3J9BkzmTZtBn/+883MnTffXOWQ5OXtwalBgzSQYRg89fRzTP5+Chs2bOLd9z/A6/Xi8XiYM2euufoRl5GxntEPP8qGjZv46ec5/PTTHADmzptPVVWVuXrQli1bCQQC7M3PZ1fuLnP4mFBeXs5zY8byxJPPBMt27NzJo489QVbWFr788is+++zzWvuIHGnbt29nztx5we2B0Q/rQrw0m/kLFnLNtTewbl1GsGzy91P48MN/smnTZh4c/QglpaW19pGjn+2pp556ylx4PAkEDGy2uvn1uoz1tGzZAmelix7duwGwZk06TqcTfyDAOWefRSAQYPWadBYvXkpRURFpqalYrVYyMtYTERHBTz/Pwefz0aJFC9akpzNv3nwKCwrp0KEDPp+PefPms3zFChwOB8nJSeaPICeQSlcVUZHhWCwWc4gZM2Zx881/5txzzmbw4EG88+77jLrkYqgZfM6e9SO5ubmkpqZit9txu93MmTuPlStXUeF0kpaWWm+Z0+kkMTGBiIgI8yHlBBUIBPB4fERGhptDlJaW8tX/vuaF55+jd+9enHP2WQB8++13zJ03H8MwaJPaBovFUm/fZu4XPR4vpWVlrFi5io0bN5HSKoXdu/P46ee5VFVV0aZ161rH/+bb8Vxy0YWMHDmcgQMH0KVLZ3bm5vL88y8SFRWFz+cjJjaGzKwtlJaV8uNPP9OzZw+Kiovp2LED27Ztp6qqih49urM3P5/NmVm0ad0ar9fL3HnzWb1qDYmJCcTExFDpctV5n2XLV7Bw4SL27NlLmzatsdvttT7f4TAMA1eVm6io+n+LkyZ/z/ALzmfu3Hlc/tvLAIiPi2PE8Avo1asnQ4cO4e+PP8k1V//RvKtIo/j9AbxeH5ERdfuA1NQ2DBjQnwED+tO5cyeWL1/Bdddeba4mckS43V4sFgvhYQ5ziMLCQhYtWkK/fn1JTkqibdu2ADz66OO89eY4evfuRcuWLVi4aDF9+pxi3l0OwuP1YRgGEeFh5lCTqJuRnUCGDTuDadNnBF9Pmz6D8847N/ja7/eTl5dHzx7dWb58BTNnzQZgxsxZvPjSy0RFRZGYlMiUKVMZP34CXbt0ITy8ujN/YezL5BcU0LVrV9597wNWrFgZfF+RAyktKaVtWhoAW7ZuZczzY+nStTNVVW5GP/QohmHwz48/xel00rtXr+CdoPrKZsycRV7enlrvL3IgcXFx2Ow2pk2fgdfrDZY7whzEx8eRlpaKw24/YN9m7hc3bd7MffePJiK8+oLL7Xf+jQULF9Lt5JN4/4OP6jzq0LdvH/771dfszM0NltmsNiwWC6lt2pCQkEB5eTljnh/LzJmz6dKlCwCvjXtjv3epfozi+edfDP6OXnl1HJWVlXTq3IlHHn2cktLSOu+zcOFi5s9fwCm9e2OxWDCMWm8Zclde8Ts6duxgLsZmswGQu2sXfU7pbQ6LhMykyVP4wx+uNBeLNInk5GRuuvF6rNbaF+vDwsKC/WJ8fDxZWVm14nL0O6ETz4iICLp3O5nMzCzKysqpcDpp1bJlMO5wODj3nLOJjIygc+dOtQZKI0eO4Kwzh5HSqhX/+/ob7v7bnfTv349Bg06ntLSMrKwsrvjd/9Gvbx/uuONWJkycHNxXxGzM82O5+977+fSzf3P7bbcAMGvWj9x4/XX07dOHUaMuJj4+ni1bt5KcnExOzg5atmzBWWcOg5pO2lwm0hhWq5Vxr77Cnj17+NNfbmb2jz9hs9no2KEDKSkp9OrVk8pK10H7tv37RYALzj+PIUMGc+HIEezcsZM//uH39OzZgwvOP7fOc4tnDB3Cdddezbhxb/LkU89QUlpKmzatiY2Lo3v3bqSlpQLg9Xq59Za/0r9f31r7A5RXVPD0s2MY/eD9tGzZgrKyclatXkOXzp2JCA+nZ88erF61ps77xMfHsWPHThxhv/T5Rwu3280bb77NbbfebA6JhESly8XMWbM4Y+gQc0ikWV122aW8Nu4NJk6azOf/+QKjqa8SymE7oRNPgBHDL2DGzFnMnTuPkSOG14otXLiYZ54dw4aNmygrK6vVwPdPUPMLCoiLiwu+rnJXkZycHHwdGxtLWXlZ8LWI2aMPj2b0A/dTVlZOfHw8AE5nJbGxscE6SUmJVDor+f2Vv2PQoNN5bsxYPvpH9fPI9ZWJNFZcXCw3XH8dH7z3Dl9++VWd5PDX+rb9+0WAxMSE4H+3bNUyeKXabrPj9/v3q1ltwID+vPrKi5xzztm8994H5jAAnTp2rHfKOsDUqdOoqnIHF51wOp0YhkFW1haysrbQo3t3OnXqCKb36dWrJ3fdeTvffDOeRx597KhZUMXr9TLm+Re59pqraN++vTksEhIzZ87i/y6/PPh7FTla/PEPV3L1VX+kZ48eXHbpb+jYsbo/l2PHCZ949uzZg5WrVjF12nQGnX5ardjUadO59Za/MnLEcBITE2vF9ndK795s3Lgp+LpFcjJ5eXk4nU4ANqzfSO9evfbbQ6Q2i9VKWloqQ4cMYsoPUwHo0aMbGes3AODz+UhPX0v7Du2xWCycdupAXnv1JVasXElZWXm9ZSKNsX8iGBUVVf2ccIUTq80W7MtC2bftf/z27dtRUlK9aITdZsPlOvDiQvv7/ZVX8OTjf2fM82OpdLlo0SKZgN/POeecxahRFzNq1MV06FB/AtepU0ceGv0AJ598MmvXrjOHm5zX6+X5sS9x+eWX0bdPH3NYJCR8Ph9fffU1I4afbw6JHBVSU9vQqVNHvv1uAmedpRlex5oTPvG0WCwMv6B6AYd9z2fuM3z4+Tw3ZixjX3yZ3bvzasX2d9utNzPujTd54slneOLJZ7DZbIwe/QCjH3qUJ596hpmzZvH7K68w7yZSx++vvJIvv/yKwsJCLjj/PLKzs3ns8ae4+577ueaaq0iIj+eTTz9jzPNjeWHsS/To3p3Y2Jh6y0QaY9euXdx40194/Imnufve+0lJSaFbt5Pp2qUzq9ekM/bFVyguLglZ3/be+x9yz70P8NjjT/Haa2/w17/8CYCLLhzJE089zfff/2DepV6pqW24/vpreeONt3A4HDzy8Gjuu380Y54fy+iHHq23L583fwGPP/E0r7w6jqysLHr06GGu0uS+nzKVn378mfc/+IhbbruTW267ky1bt5qriRxR8+Yv4NxzzyE6OtocEml2S5ct5+VXXuP+Bx/igvPPo0vnzuYqcpSzGMfxBGnDMPD6/IQ5Dn11Qp+vevUnh6Puqlv7MwyDyspKIiIigtNTDMPA4/HUSWjlxJNfWEJyYhxWa+Ov9Xg8HhwOR63phS5XFQ6HvdbKm/WViezP6/VRXuEiKfGXKdz7CwQCVFZWEh0dXau9Va/KWkVUZGTwdSj6tqqqqupVDk3v63a7sdvthzz1b1//HBkZecDfoNfrJRAI1Dn2kRAIBCgqLqNF8i9Tj0Wag9vjxVnpIinhl8eDRJpDaZkTq9VCbEyUOXRAfr8ft8cTPBdJ41U4Xfj9AeLjmufiUv1nYAmy2+2/mnRSc+c0Ojq61sCovgGUSGOFhYXVeaYtMjKiToJZX5lIY1itVmJiYuq0N4vFUutEH6q+LSIiot73DQ8PP+Skk/365wMlndQsJlffsUVE5Ohgs9mUdB7jDnwWFhERERERETkClHiKiIiIiIhISCnxFBERERERkZBS4ikiIiIiIiIhpcRTREREREREQkqJp4iIiIiIiISUEk8REREREREJKSWeIiIiIiIiElJKPEVERERERCSkLFVut2EuPF5YLBZ8/gB2m/JraV7FJeUkJsSai0WaVCAQoKKiiri4KHNIQqykpJwE9QHSzPz+AM5KF3Gx0eaQSJNyOquwWi1ERoabQxJCbrcXm81GRLjDHGoSlt15hcdt4hnmcGB3WPEHjtt/ohwjLIaBYbGYi0WalBEwsNmsBAz1iU1NfYAcLawWi/oAaXZGwMBiVZ/YHKIjIwgLs5uLm4TFMI7f3scwDLw+P2GO5vlyRfbJLywhOTEOq1V336X5eL0+yitcJCXqzltTCgQCFBWX0SI5wRwSaVJujxdnpYukhDhzSKRJlZY5sVotxMZoBk5TqnC6CAQM4mKb53vXKFhEREREROQE0Jz3HJV4ioiIiIiISEgp8RQREREREZGQUuIpIiIiIiIiIaXEU0REREREREJKiaeIiIiIiIiElBJPERERERERCSklniIiIiIiIhJSSjxFREREREQkpJR4ioiIiIiISEidsIlnUVERmZlZwa2oqAiAd9/7wFxVJKR25ubWaouVLpe5yhG3bPkKc5FIsC1uzc6mpLQ0WJ6RsZ7Fi5fUqnu49ubnU15eHnydn19Q65glJSXBfvlQbNy4iYqKCnPxUWn37rzg7z9ryxZzWKTJuN1u0tPXsmvXbnNIpMkVFBTW248bhsGGjRsxDMMckqPcCZt4zpg5m48/+ZQ5c+cxZ+48tufsqCmfZa4qElLjxr3JlB+mBtti2X6D71DZsmUrgUDAXCwnuHHj3mTmrNnMmTOPZ54Zw3vvfwg1SeKOnTvN1Q/LypWr+GHq9ODrl155lS+++G/w9RdffkVm1qEnYXl5e3BWVpqLj0pvv/te9fc+dx4LFywyh0WaRHl5OXfedQ+bNm/mX5/9m+8mTDJXEWky8xcs5Jprb2DdugxziBkzZ3HtdTfh8/nMITnKnbCJJ8CIEcP5y59v4i9/von+/fqaw+Tk5PDt+O+YN39BcJCekbGegoJCpkyZypQpU4NX7AOBAKtWr+G7CZNYsHARfr/f9G4iB3bVVX8ItsXWrVsDsGrVar75djzr128I1lu+fAVFRUV8N2EShYWFZGSsp6ysnGnTZ7Bx4yZcrirmL1jIdxMmHXS/1NQ2WK0n9M9fDuB3v7ucm268nldeHstXX31d54pyYWEhs2bNZtLk79m9Ow+AHTt2MGPGrOBWUFAIB+hD9zmld2+WLl0GQGVlJYZhsGLlyuDxFi5aTO9ePes9XqXLxfoNG8nasoVvvh0P9bTxli1bEB4WBkBpaRlTfpjKhImTyM8vCH4G8z5bs7MZP34CU36YGvw3NIWioiJuufkv/OXPN3H99deawyJNYvHipYwcOZwrr/gdjzw8mh9//InKY+TijRxfCgsLyczM4tprrzaH2L07j5UrVzFwQH9zSI4BJ/TIs6ioiJ25uezMza0zvTE7exvjXn+LHt27k5mZxeeffwE1V1leG/c67dq1BQuMfekVAPx+P3l5efTs0Z3ly1cwc9bsWu8n0hjTps9g/oKF9OzRg/988SWrVq0G4O133uOfH39KWloqkZGRzJg5ixdfepmoqCgSkxIpKioiEAjQo3s33nrnXXbsqL6Tb97vtXFvmI4oUi1/bz65ubuYP38BF144AovFUiu+Y2cuSUlJtGvXjnvve4BAIEB0dDRpaam0SmnF+x98hGEYB+xD90lLS2V7Tg5ut5s1a9I5deBAevXsSfa2bRQXFxMXG0t0dHS9xysvL2fM82OZOXM2Xbp0gXra+IyZs8jL20Oly8U99z1AfHw8rVNSuOe+B4JTePffp7LSxeuvv0W3bifTokULXFWhn/K+T3l5BXPnzWfOnLmUlf0y/VikKVksEBEeEXwdFxdL3p49teqINIXk5GRuuvF6rNba5x+/38+7733Abbfdgj+gGzzHohM68VywYBHffTeR776byO7dtZ9nmDV7NmecMQSr1cqpAwcwYeLkYOyyyy6lT59TuOTii9i8ORMAh8PBueecTWRkBJ07dyI7e9t+7yZycA8//Hduue1ObrntTipdLr766mvOGFrd/k477VTmzJ0HQElpKTfdeAOnn3YqUVFRAIwcOYKzzhxGSqtWpKWl0q9vXxxhDk7q2pUdO3IPuJ9IfX6YOo0JEycxc9aP9O/fzxymX98+tGvXjpjoaCIjIykrLycpKYlevXqyevVq7rjjVlq2bHHQPnSfM4YOITMzi8VLlnLqqQMYPGgQy5atIGP9BoYOHXLA4wF4vV5uveWvwdkqB2rj6WvSGTzodIadMZTBgwdx5RX/x9x58+vsk5SUSHl5OZUuF6edOpB2bdsG3yPUbr/1FiIjIqhwOrn73vub9G6ryD4DBvRnytSpTJr8PR98+A8ys7bUmfEg0py+/mY8l106ioT4eHNIjhEndOL5m99cwl133s5dd95Ol86da8VKSkrJzy8gK2sLOTk7uPWWvwZj8XFxteoCLFy4mGeeHcOGjZsoKytTZy2NMnbsGD54720+eO9toiIj2bN3Lztzc8nK2oLdZuesM4cF67ZokVxr31YtWwb/++NP/sXHn3zK9u05uFwuDH5ph+b9ROpzww3Xccftt/LM008wceJkduZWX7wA8Hg8PPLoY8yYOZPdu3fj8/sw9nsMITd3F+efdy78Sh+6z8AB/Ulfu5Y1a9Lp0rkzffuewoIFC0lPX0u/vn0OerxOHTvWuRtbXxt3VVXV6rPj4+NxOp3B1/v2iY6O5rVXX2L9+vX89Zbb2L49J1gn1IYOHczgwYO45OKLGDn8Apav0OJf0vSSkpJ47ZWXOfmkk/j9lb+jdUoKrVNSzNVEmkVu7i4mTZpMfkEBU6dNZ++evUyfPhOPx2OuKkexEzrxPJiuXbuSmJjIqFEXM2rUxYwYcYG5Si1Tp03n1lv+ysgRw0lMTDSHRRplQP/+dOncOdj+BjTgWQbDMPjm2/Hcc/ddnHfuObr4IYfF7/cH7y7uk7NjB9HR0Vxz9VUMGTKYoqJiAJxOJ2+/+x5/u+uOYN2G9KG9e/di8uQp9OvXF4vFQnTNXc2lS5fRrdvJBzxeY3Tp3ImVq1YHfw9r1qTTtWtXczUAEhMTueH667jtlpuZPmOmORwSgUCg1m91a3Y2LZLrJtAiTSEyMoLu3buxa9dukpOTiI6ONlcRaRbRMdHcccdtxMXFERcXh8MRRlxcbJ0LkHJ0O6ETz3ff+4A77rybO+68m1mmZzIvvmgkmZlZPPLoYzz19LN8/p8va8XNhg8/n+fGjGXsiy8HF8AQOVR33H4rH3z4D5559nn+/tgTLFq02FylDovFwqhLLuaRRx/j2ede0IBBDskzz4zhvvtHc98Do7n8t5fSNi0tGGvXti35BQWMeX4sL738Kn37nALAt99+R3l5BW++9Q5jnh/Lxo2bGtSHJiUlYbPbGXT6acGyYcOG0qZNaxwOxwGP1xjt27dn8KDTue/+0Tz8yGM4HHZOP+1UczVyc3cx+qFHeW3cG3z53/9x7jlnm6uERGVlJXfedQ/PPvcCf7v7PpKTkxk4cIC5mkiTeG3cGzzx5DOM/24id999lzks0mwS4uM5Y+iQ4JaYlMCQIYNxOBzmqnIUsxjH8W0RwzDw+vyEOezmUIO53W4AwsPDzaE6fD4fhmHoRyB15BeWkJwY1+iVZCtdLsLDwrDZbObQAbndbux2e6P2kROD1+ujvMJFUmKsOdQolS4XkRERDbrS3Jg+9EAac7wD8fv9GIaB3X7g84Hf78ft8RAVGWkOHZZAIEBRcRktkhPMIag5V7mqqghzOA76+UQOl9vjxVnpIimh7iNDHOI5R+RQlJY5sVotxMZo3YmmVOF04fcHiI9rnpsTjRsFn4DCw8MbPGCy2+1KOuWIioqMbPQAIDw8vNH7iDRGVGRkg5PAxvShB9KY4x2IzWb71aTOZrMd8aSzISwWC1GRkb/6+URC7VDOOSIiDaXEU0REREREREJKiaeIiIiIiIiElBJPERERERERCSklniIiIiIiIhJSSjxFREREREQkpJR4ioiIiIiISEgp8RQREREREZGQUuIpIiIiIiIiIaXEU0RERERERELKUlxabpgLjxd2mw0Am035tTSvCqeLmOhIc7FIkwoEArjdPiIjw8whCTGn00W0+gA5Criq3ERGhJuLRZqUx+PDarVgt1eP1aVp+P0BHA47Nmvz5EaWwqKy4zbxDAuzY7FY8Hp95pBIkwoEAlib6Ucuso9hGFisFjhue/2jV8AIYLWoDxARIXg+soKhE1JTi4oMx+6wm4ubhMUwjt//44Zh4PX5CWumL1dkn/zCEpIT45R8SrPyen2UV7hISow1hySEAoEARcVltEhOMIdEmpTb48VZ6SIpIc4cEmlSpWVOrFYLsTFR5pCEUIXThd8fID4u2hxqEhoFi4iIiIiISEgp8RQREREREZGQUuIpIiIiIiIiIaXEU0REREREREJKiaeIiIiIiIiElBJPERERERERCSklniIiIiIiIhJSSjxFREREREQkpJR4ioiIiIiISEgp8RQREREREZGQOuETz+LiYtLT15KRsZ6KigoAPB4Pa9LTzVUPy978fHJycszFIgD4/X6ysrawavUadu3abQ4fErU5aYy8vDwyM7NqbTtzc8nIWM/ixUvM1Q+b3+/nw4/+aS5usJ25uXi93uBrr9fLztzcWnUaa+q06ezenWcubhKBQKDO79Xv95OevpYtW7fWKhcJpYqKCtav30DWli3mkEiTKigoDI7N9zEMgx07d7Jq1WoqKytrxeTod8ImnoZh8MGH/+C5MWPZuGkzy5Yv5+133oOaAcyOnJ3mXQ5LWWkZhYVF5mIRioqKuPf+B5k4aTKbN2fyz48/JT+/wFytQebOm09VVRWozUkjbd6cyZy58/j4k0958613mDN3Hunpa9mbn8+OnUe2P6Qm0fr55znm4gYbN+5NioqLg68LCgoZN+7NWnUaa+PGTXUGOU2hvLyc58aM5YknnwmWBQIBRj/0KBnr1/P99z/w+X++rLWPSCgsWbKUJ596lsysLJ0/pFnNX7CQa669gXXrMoJlbrebxx5/kmnTplNQUIjTqcTzWGN76qmnnjIXHk8CAQObrW5+PX3GTPbs2cPjjz1K71496devL8OGnQGAz+/H5XKRmpqKy1XFkqVLWbFyFUYgQMuWLQFYvnwFYGHmzNns3buXdu3aYrVaychYj9Vq5aef5pCZmUWbNq0JDw+nqsqN3WEnMTHR9EnkRFDpqiIqMhyLxWIOMe71NxkxfDhXX/UHevfqydlnnUl0dBQAO3buZPasH8nNzSU1NRW73U6ly0Vm1hby8vKYv2ABPq+PlJQUdubm8vzzLxIVFYXP5yMuLk5tTmoJBAJ4PD4iI8PNITp06MCAAf2x2WwkJSVx/XXXcNJJXdm2bTsVFU6Ki4tZm76O+Pg4YmJiKC8vZ8PGTbRunQLA1uxsXK4qYmNjD9g/AixZuoxlS5cTGxvD7J9+5nf/91sAcnJymDX7RwoLi2jXti0Wi4WMjPVERETw089z8Pl8tGjRIvh5Z8yYxRlnDCUmOhpq7tIsXLSYkSOGEwgEWL0mncWLl1JUVERaair5BQXs2LGDli1a4PP5mDFzFp06dQz22zablTXpazn55JNITk5i06bNVFY6iY+PZ9nyFSxcuIg9e/bSpk1r7HZ78HM0hGEYuKrcREVFmEMATJr8PcMvOJ+5c+dx+W8vAyAjYz2lpaX8+U83MnjQ6bzx1tsMH34BDofDvLtIg/n9AbxeH5ERdfuASpeLF154iXGvvUzPnj1om5ZmriJyxLjdXiwWC+Fhdfu0wsJCFi1aQr9+fUlOSqJt27YAfDdhIj26d+fKK35Hly6dg2MlaTiP14dhGESEh5lDTaJuRnaCmDFjFv93+WX1JgLl5eV8/c14qLkbFQgE6NG9G2+98y47duwA4KVXXmPS5O/p3qM7a9LXMmnyFABmzJzFa+Nep127tmCBsS+9AsCmzZtZsWLlfkcRqZ5KN2v2j5x99pnmEFu2bmXM82Pp0rUzVVVuRj/0KIZhUF5ezp133c3W7Gx6dO/O+x98RGZmFjarDYvFQmqbNiQkJKjNyRHz1VdfE+Zw0KZNa+6970HcbjcFBYVMnDQ5WGfFipVs2rwZDtI/Tpg4ifnzF9C9Rzcmf/9DsP/Nzt7GuNffokf37mRmZvH5519ATX/64ksvExUVRWJS3Qsoe/L2sDM3l525ueTt2RMs9/v95OXl0bNHd5YvX8HMWbOxWqx8+GH11N51Get57bU32JyZCcDb776Hw/HLSXjdugz+88V/adOmDQsXLmb+/AWc0rs3FosFwwhWO2KuvOJ3dOzYoVbZ9pwcunbtEnzdvVs3cnce3lRikYPZtHETp59+GosWL+G77yYe8swbkcOVnJzMTTdej9Vae4z+408/06FDB76bMIn5CxbWismx4YRNPPML8klISABg1arV3HLbndxy252UlJbWqpeWlkq/vn1xhDk4qWtXduyoPvF7PB6uvuqP9OzRnd+MuoRNm6oHXACXXXYpffqcwiUXX8TmzdUDG5H6lFdUkJqaWu8FkFmzfuTG66+jb58+jBp1MfHx8cFnvTq0b89ll/6Gnj17cPFFF5KdvY02bVoTGxdH9+7dSEtLNb+dyCEbOXI4gwadzsCBA+jWvRv5BQcfkB6of5w4cTJ//vNN9Ojenav++HsCfj8As2bP5owzhmC1Wjl14AAmTPwloR05cgRnnTmMlFatgmX7/DB1Gt99N5HvvpvI1KnTguUOh4NzzzmbyMgIOnfuRHb2Nlq2bEFRURFut5uFCxdx5523sWTJUsrLy7FarMTFxQKQtWUL//r35zz6yGgcDgfx8XHs2LETR9gv79kUPG4PYWG/JMORkZG43e5adUSOpMLCQubPX0B0VBRdunTm0b8/jtPpNFcTaTY7d+xk8ZKlnHJKLzIy1vPdhEnmKnKUO2ETz3Zt27Jn714A+vfvxwfvvY3dZsPn9dWq9/En/+LjTz5l+/YcXC4XBr9c7t43ULHZrPj9v+wXHxcX/G+Rg4mNiWHXrl34fLXbHYDTWUlsbHUbA0hKSqSy5nmGVvsNwm12G/5A9QBeJBSS9rvbaLfZggnj/sxtuL7+saCwkNiYGIBabbukpJT8/AKysraQk7ODW2/5azDWqubxhvrcdNMN3HXn7dx15+3cdOMNwfKFCxfzzLNj2LBxE2VlZRg1tynPOGMo6zdsZN26DC6+6EIWL1nK+vUbOOOMIcF958yZR0lxCYGafXr16sldd97ON9+M55FHH2uyxSxiY2OCv3eAsrKy4HcqEgqRUVFcfPFFDBw4gD59TmHAgP5s2aKFreTokZCYwNVX/YGuXbrwhz9cyc9zDn2dAGkeJ2zieeGFI/nk089qrYpoZhgG33w7nnvuvovzzj0nOHgROVJsNhsXX3Qh302YaA7Ro0c3MtZvgJpBfXr6Wtp3aG+uVovdZsPlql5cSCSUYmJiKCr6ZfGRdRnra8Xr06tnT7K3bQMgp+axBYCuXbuSmJjIqFEXM2rUxYwYccF+ezXe1GnTufWWvzJyxPBazzgPHNCfCRMmMmBAf+x2O106d2by9z8woH//YJ0//+lGrrvuGt588+1gWadOHXlo9AOcfPLJrF27LlgeSt17dGfpsuVQs+Dd5s2ZpOmZOwmhrl06s25dRnCss317DknJSeZqIs1mQP/+bN2aDUDe7jzatG5triJHuRM28TzrzGGcOnAgf/rLzTzx5DM8+vfHqaioqDW1yWKxMOqSi3nk0cd49rkXiK5ZxELkSLr9tlvYsmUrf/7rLTz2+FPc9bd78Xq9XHD+eWRnZ/PY409x9z33c801V5EQH2/evZaLLhzJE089zfff/2AOiRxRLVu2oE3rNjz+xNM8+9wLRIT/+hTUv/71T7z44is8/8KLzJgxK/i4w8UXjSQzM4tHHn2Mp55+9rBXcB0+/HyeGzOWsS++XOvPo/Ts2ZOp02YwdGj1Hc5hZwxlwcJFnHRS1/32rj4/REdHM236DObNX8DjTzzNK6+OIysrix49etSqGypt09Lo1u0kHnr47zw4+hFu/utfsNls5moiR0xKSgoDB/Zn9MOP8uBDj9C/fz8tMCRHleuuvYaP/vExY54fyzvvvs+f/3STuYoc5SzGcXwbzzAMvD4/YY4Dr0BoGAaVlZU4HI5aSef+3G43drtdJ305ZPmFJSQnxgVX9qyP3++nqqqKqKioWs98ejweHA5Hvc+B1kftVQ7E6/VRXuEiKfHITdn0eDzYbLYGtzfDMPB4PISH111Vc98zjPXFGsvnq16570isAuv1egkEAof8uQKBAEXFZbRIrk60G8Pr9WK32xv8+xc5GLfHi7PSRVLCgR8J8vv9+P3+A46JRI6E0jInVquF2JjGr0zrclUREVH/XwqQg6twuvD7A8THNc/NtAOPgk8QFouF6Ojog3aw4eHhDR5UiRwqm81GdHR0nY40LCysTtnBqL1KUwoLC2tUe7NYLAdM4MLDww8Yayy73X5Ekk5qFis6Up+rsRpz0UnkSLDZbAcdE4k0t8jICPWLx6gTPvEUERERERGR0FLiKSIiIiIiIiGlxFNERERERERCSomniIiIiIiIhJQSTxEREREREQkpJZ4iIiIiIiISUko8RUREREREJKSUeIqIiIiIiEhIKfEUERERERGRkLIUFJYa5sLjhdUKNrsNjtt/oRwrXFVuIiPCzcUiTSoQCODzBQgLs5tDEmJVVW4i1AfIUcDj9RLmcJiLRZpUIBDAYrFgsVjMIQmx8LAw7PbmufdoKS1zHrdpWZjDDhbwen3mkEiTclV5iIwIMxeLNCnDMPD5/DgcSjybWlWVhwj1AXIU8Hp96gOk2RmGoaSzmYSFObDbminxNAzjuE08DcPA6/NXJ6AizSi/sITkxDis1ub5oYtQM+Asr3CRlBhrDkkIBQIBiorLaJGcYA6JNCm3x4uz0kVSQpw5JNKkSsucWK0WYmOizCEJoQqnC78/QHxctDnUJDQKFhERERERkZBS4ikiIiIiIiIhpcRTREREREREQkqJp4iIiIiIiISUEk8REREREREJKSWeIiIiIiIiElJKPEVERERERCSklHiKiIiIiIhISCnxFBERERERkZBS4ikiIiIiIiIhdUInnnv27GH1mnRycnIwDMMcrqXS5eLd9z7g2edeICcnhx07d5qriBySnbm5ZGZmsTU7m0qXK1i+Nz+fnJycWnUPxuPxsCY93Vws0mCBQIDs7G2sSU8nP78AgIyM9SxevMRctcH+88WXOJ1Oc7GYeL1etmzdyqrVa8whkSbj8XjYuHETW7ZuJRAImMMiTaqgoJCKigpzMYZhsGHjxl8du8vR54RNPL+bMInX33iLzMxMvv5mPFu2bDVXqWX8+Al07tyJh0bfj9vtobCwyFxF5JCMG/cm02fMZNq0Gfz5zzczd958AMpKyxrVzrxeLztydEFEDo1hGDz19HNM/n4KGzZs4t33P8Dr9bI3P/+wLrQtXbYcj8djLpb95Obu4v4HH2LZ0uXs2bNHgylpFpUuFw88+DCbMzNZsGARY55/0VxFpMnMX7CQa669gXXrMswhZsycxbXX3YTP5zOH5Ch3wiae33w7nkcefogrr/gd9993D127dgHA5/MxZ85cvvl2PJmZWQDs2buXZcuXs3t3Hlu2biUqKor4uDgACgsLmTVrNpMmf8/u3Xm1jiHSUFde+Ttuv+0WXn55LF98+V+A6naWEA+A3+8PtsuMjPX1llmsVlq3Tqn1viINVVpaSk5ODn+76w7++IcrefLxv+NwOAAIBAzmzV/A99//wJ49e4L7bM3O5vvvf2Da9BlUVlYGy7O2bOG77yaSnr4Wm9UWLC8tLWPKD1OZMHES+fkFeL1e5i9YGIwvXLiYwsJCAHbvzgv2wce7t95+l4cefIA//vH3XDhyBBaLxVxFJOR2795Nhw7tufQ3o7j+umtYu26d7npKsygsLCQzM4trr73aHGL37jxWrlzFwAH9zSE5BpywiecZQ4fw+X++oKysvFb5C2NfJr+ggK5du/Luex+wYsVKAv4AMdHRtGrZkoT4BDZs3MjqmulQO3bmkpSURLt27bj3vgfUScthKS0ppW1aGgCbNm9mxYqVAIx5/kW2bd9O165dsVirf7bmsvLycr7+Znyt9xNpqLi4OGx2G9Omz8Dr9daKffXV14Q5HLRp05p773sQt9sNwPbtOXTu0hm/388bb74NQGZmFq+8Oo6TTz6JLVuzWbxkKdTcTbnnvgeIj4+ndUoK99z3AOXl5bzzznu43W4qXS5eGPsiP/70MwDTps+gqLh4v09xfKp0uSgrK6OoqIhvvh3Ppk2bzVVEmkSH9u3ZnZfHTz/P4av/fcNll47CWnO+EWlKycnJ3HTj9VittS/C+f1+3n3vA2677Rb8AX+tmBwbTtge5Zab/0LHjh24+977+efHn+L3+yktLSMrK4srfvd/9OvbhzvuuJUJEyfTpk1rWrRoQZcunWnTpnWt9+nXtw/t2rUjJjqayMhIysprJ7IiDTHm+bHcfe/9fPrZv7n9tltqxUpLy9iwYQM3XH8d/fr2oWeP7vWWiRwOq9XKuFdfYc+ePfzpLzcz+8efgrGRI4czaNDpDBw4gG7du5FfUP3851lnDiMhPp6OHTqQsX4DAD/PmcMN111Lr149ufy3l9K+XVsA0tekM3jQ6Qw7YyiDBw/iyiv+j7nz5jNs2Bls2rSZ1avWcOON1wfvgC5espRTevcKfobjVWlJKVlZW8jdtYt+ffvyz48/VfIpzcJutzNk8CCmTp3ODz9MpfcJ8PuTY8vX34znsktHkRBfPRtMjj0nbOJps9m4+KIL+edH7+N0Opk5azZV7iqSk5ODdWJjYykrL6u13/48Hg+PPPoYM2bOZPfu3fj8Pgzd8ZRD8OjDoxn9wP2UlZUTb+pQKysrSUmpPYW2vjKRwxUXF8sN11/HB++9w5dffhV8tjMpKTFYx26zEfD72bVrN/fe/yBLly2jsKiIgL/66rO5DbdKaQWAq6oq+IgCQHx8PE6nk1MHDiB97TrmL1jAsGFnkBAfT3b2NqIiI4mKigrWP15FRITTt18fLhw5gq5du/Dbyy5l+YoV5moiIbd8+Qr27NnLSy8+z/vvvcP7H3xE8Qkw60CODbm5u5g0aTL5BQVMnTadvXv2Mn36TK0hcIw5YRNPf80gyWq10qFDe8rLy2mRnExeXl5wBcYN6zfSu9eBr/jl7NhBdHQ011x9FUOGDKaoSB20HBqL1UpaWipDhwxiyg9Ta8WSk5PYsmVLrZXd6isTORz7+kRqni9OS0vFWXHg1WiXLlvGhSNH8NvLLqVjh/bB8g4d2rM5MxNqFrxaX3MntEvnTqxctTq4cM6aNel07dqV3r17sWrVavbs2UtKq1acOewM/vnxpwwdOhgAt9tNec1MkpKSEvx+P4ZhBJ8FPdYlJCRQUVERXNF61+5dtGjRwlxNJOT27N1Lu5oZCpGREbRNS6O4pMRcTaRZRMdEc8cdtxEXF0dcXBwORxhxcbF6Jv4Yc8ImnjffejsPP/IYjzz6GIsXL2HkiBHYbDZGj36A0Q89ypNPPcPMWbP4/ZVXmHcNate2LfkFBYx5fiwvvfwqffucYq4i0ii/v/JKvvzyq1qD6rCwMB584D7uuPNunn7mOT7/z5f1lokcjl27dnHjTX/h8See5u577yclJYVu3U42VwsaOKA/X3/9LWNffIXvp0ylbdvqAeuFI0cwd+58nn3uBV5+5TV69eoJQPv27Rk86HTuu380Dz/yGA6HndNPO5Xo6GgCgQCDB58OwKmnDmTS5O/p378fAD/9PId//PMTAJ5+Zgzpa9dRUFDIFb+vu+jEschisXDHbbfy8CN/5+lnx7B+/UbOO/ccczWRkDtz2DDmz1/IK6+O49nnXiA1NZVOHTuaq4k0i4T4eM4YOiS4JSYlMGTI4OAieHJssBjH8brthmHg9fkJc9jNIQCcTicRERHYbL+sukjNfh6Ph/Dw8FrlB1LpchEZEaGrLnJA+YUlJCfGHdZCDX6/H7fbTWRkZLCt1VcmciBer4/yChdJibHmENT8Hc/Kykqio6Mb1J4Mw6Cqyk1kZIQ5RFVVFRERdcv33bG02+vvl838fj9+v5+wsDCqqqoIDw/HYrHgclXVe9yjUSAQoKi4jBbJCeZQ0MG+S5Ejxe3x4qx0kZTwy7R3M6/Xi9VqrTM2EjmSSsucWK0WYmOO/0cqjiYVThd+f4D4uGhzqEkc+ij4OBAdHV1vx2qxWBqcdAJEadAvTcBmsxEVFVWrrdVXJnKorFYrMTExDW5PFovlgIlSfUknNW22oUknNfXDwsKg5j33fbYDHfdYdbDvUqQpORyOesdGIiKH64ROPEVERERERCT0lHiKiIiIiIhISCnxFBERERERkZBS4ikiIiIiIiIhpcRTREREREREQkqJp4iIiIiIiISUEk8REREREREJKSWeIiIiIiIiElJKPEVERERERCSkLHv2FhnmwuOF1WbFggW/P2AOiTQpAwMLFnOxSBMzQO2wWagPkKOGpaYrEGlWBlgsaovNwGKxYDTTF///eEDGb3coTKQAAAAASUVORK5CYII=;" vertex="1" parent="JWi303rD80z22EchMW59-52">
          <mxGeometry x="80" y="460" width="926" height="192" as="geometry" />
        </mxCell>
      </root>
    </mxGraphModel>
  </diagram>
</mxfile>
